<svg xmlns="http://www.w3.org/2000/svg" xmlns:xlink="http://www.w3.org/1999/xlink" width="1002" zoomAndPan="magnify" viewBox="0 0 751.5 243.75" height="325" preserveAspectRatio="xMidYMid meet" version="1.2"><defs><clipPath id="6249b29d04"><path d="M 134 0 L 617 0 L 617 243.5 L 134 243.5 Z M 134 0 "/></clipPath><clipPath id="2d2a79e41e"><path d="M 0.878906 12 L 475 12 L 475 237 L 0.878906 237 Z M 0.878906 12 "/></clipPath><clipPath id="486973c3da"><rect x="0" width="475" y="0" height="225"/></clipPath><clipPath id="316c52e41f"><path d="M 241.5 0 L 425.484375 0 L 425.484375 243.5 L 241.5 243.5 Z M 241.5 0 "/></clipPath><clipPath id="ba605867ce"><path d="M 13.167969 101.824219 L 102.984375 101.824219 L 102.984375 187.296875 L 13.167969 187.296875 Z M 13.167969 101.824219 "/></clipPath><clipPath id="4b13048758"><rect x="0" width="483" y="0" height="244"/></clipPath></defs><g id="746425059c"><g clip-rule="nonzero" clip-path="url(#6249b29d04)"><g transform="matrix(1,0,0,1,134,-0.000000000000041252)"><g clip-path="url(#4b13048758)"><g clip-rule="nonzero" clip-path="url(#2d2a79e41e)"><g transform="matrix(1,0,0,1,-0.000000000000028422,12)"><g id="f5ae9dd91c" clip-path="url(#486973c3da)"><g style="fill:#012c18;fill-opacity:1;"><g transform="translate(0.99606, 160.348657)"><path style="stroke:none" d="M 16.140625 -92.046875 L 16.140625 -126.3125 L 47.90625 -126.3125 L 47.90625 -92.046875 L 67.28125 -92.046875 L 67.28125 -67.828125 L 47.90625 -67.828125 L 47.90625 -38.578125 C 47.90625 -30.085938 50.296875 -25.84375 55.078125 -25.84375 C 56.273438 -25.84375 57.53125 -26.078125 58.84375 -26.546875 C 60.164062 -27.023438 61.1875 -27.503906 61.90625 -27.984375 L 62.984375 -28.703125 L 70.875 -3.046875 C 64.050781 0.773438 56.273438 2.6875 47.546875 2.6875 C 41.566406 2.6875 36.421875 1.640625 32.109375 -0.453125 C 27.804688 -2.546875 24.546875 -5.351562 22.328125 -8.875 C 20.117188 -12.40625 18.535156 -16.113281 17.578125 -20 C 16.617188 -23.894531 16.140625 -28.050781 16.140625 -32.46875 L 16.140625 -67.828125 L 2.875 -67.828125 L 2.875 -92.046875 Z M 16.140625 -92.046875 "/></g></g><g style="fill:#012c18;fill-opacity:1;"><g transform="translate(56.611267, 160.348657)"><path style="stroke:none" d="M 10.765625 0 L 10.765625 -92.046875 L 42.515625 -92.046875 L 42.515625 -78.765625 L 42.875 -78.765625 C 43.113281 -79.242188 43.503906 -79.84375 44.046875 -80.5625 C 44.585938 -81.28125 45.753906 -82.535156 47.546875 -84.328125 C 49.335938 -86.117188 51.25 -87.734375 53.28125 -89.171875 C 55.320312 -90.609375 57.957031 -91.894531 61.1875 -93.03125 C 64.414062 -94.164062 67.703125 -94.734375 71.046875 -94.734375 C 74.515625 -94.734375 77.921875 -94.253906 81.265625 -93.296875 C 84.617188 -92.335938 87.078125 -91.378906 88.640625 -90.421875 L 91.140625 -89 L 77.875 -62.078125 C 73.925781 -65.429688 68.421875 -67.109375 61.359375 -67.109375 C 57.535156 -67.109375 54.25 -66.269531 51.5 -64.59375 C 48.75 -62.914062 46.800781 -60.878906 45.65625 -58.484375 C 44.519531 -56.097656 43.710938 -54.066406 43.234375 -52.390625 C 42.753906 -50.710938 42.515625 -49.394531 42.515625 -48.4375 L 42.515625 0 Z M 10.765625 0 "/></g></g><g style="fill:#012c18;fill-opacity:1;"><g transform="translate(130.705554, 160.348657)"><path style="stroke:none" d="M 17.046875 -11.390625 C 8.429688 -20.785156 4.125 -32.300781 4.125 -45.9375 C 4.125 -59.570312 8.429688 -71.113281 17.046875 -80.5625 C 25.660156 -90.007812 36.601562 -94.734375 49.875 -94.734375 C 62.082031 -94.734375 72.128906 -90.90625 80.015625 -83.25 L 80.015625 -92.046875 L 111.78125 -92.046875 L 111.78125 0 L 80.375 0 L 80.375 -10.40625 L 80.015625 -10.40625 C 72.128906 -1.675781 62.082031 2.6875 49.875 2.6875 C 36.601562 2.6875 25.660156 -2.003906 17.046875 -11.390625 Z M 44.046875 -61.53125 C 39.921875 -57.46875 37.859375 -52.265625 37.859375 -45.921875 C 37.859375 -39.585938 39.832031 -34.414062 43.78125 -30.40625 C 47.726562 -26.40625 52.929688 -24.40625 59.390625 -24.40625 C 65.609375 -24.40625 70.71875 -26.4375 74.71875 -30.5 C 78.726562 -34.570312 80.734375 -39.71875 80.734375 -45.9375 C 80.734375 -52.269531 78.671875 -57.46875 74.546875 -61.53125 C 70.421875 -65.601562 65.367188 -67.640625 59.390625 -67.640625 C 53.285156 -67.640625 48.171875 -65.601562 44.046875 -61.53125 Z M 44.046875 -61.53125 "/></g></g><g style="fill:#012c18;fill-opacity:1;"><g transform="translate(237.990436, 160.348657)"><path style="stroke:none" d="M 34.09375 -92.046875 L 56.515625 -41.984375 L 78.953125 -92.046875 L 116.625 -92.046875 L 67.28125 0 L 45.75 0 L -3.59375 -92.046875 Z M 34.09375 -92.046875 "/></g></g><g style="fill:#012c18;fill-opacity:1;"><g transform="translate(335.766665, 160.348657)"><path style="stroke:none" d="M 103.890625 -41.625 L 37.140625 -41.625 C 37.140625 -35.164062 39.234375 -30.378906 43.421875 -27.265625 C 47.609375 -24.160156 52.15625 -22.609375 57.0625 -22.609375 C 62.195312 -22.609375 66.257812 -23.296875 69.25 -24.671875 C 72.25 -26.046875 75.660156 -28.765625 79.484375 -32.828125 L 102.453125 -21.34375 C 92.878906 -5.320312 76.96875 2.6875 54.71875 2.6875 C 40.84375 2.6875 28.941406 -2.066406 19.015625 -11.578125 C 9.085938 -21.085938 4.125 -32.539062 4.125 -45.9375 C 4.125 -59.332031 9.085938 -70.8125 19.015625 -80.375 C 28.941406 -89.945312 40.84375 -94.734375 54.71875 -94.734375 C 69.3125 -94.734375 81.179688 -90.515625 90.328125 -82.078125 C 99.484375 -73.648438 104.0625 -61.601562 104.0625 -45.9375 C 104.0625 -43.78125 104.003906 -42.34375 103.890625 -41.625 Z M 38.03125 -59.203125 L 73.03125 -59.203125 C 72.3125 -63.992188 70.425781 -67.671875 67.375 -70.234375 C 64.320312 -72.804688 60.40625 -74.09375 55.625 -74.09375 C 50.351562 -74.09375 46.160156 -72.71875 43.046875 -69.96875 C 39.941406 -67.21875 38.269531 -63.628906 38.03125 -59.203125 Z M 38.03125 -59.203125 "/></g></g><g style="fill:#012c18;fill-opacity:1;"><g transform="translate(428.698844, 160.348657)"><path style="stroke:none" d="M 10.765625 0 L 10.765625 -154.296875 L 42.515625 -154.296875 L 42.515625 0 Z M 10.765625 0 "/></g></g></g></g></g><g clip-rule="nonzero" clip-path="url(#316c52e41f)"><path style=" stroke:none;fill-rule:nonzero;fill:#fff9f3;fill-opacity:1;" d="M 411.777344 57.019531 C 418.261719 60.019531 423.136719 64.574219 425.441406 70.363281 C 423.511719 59.804688 413.277344 52.089844 400.257812 48.929688 C 392.488281 46.945312 383.753906 46.359375 374.753906 46.839844 C 371.644531 47 368.484375 47.320312 365.269531 47.75 C 370.519531 45.445312 377.109375 45.019531 383.753906 46.359375 C 379.253906 44.320312 374.324219 42.980469 369.609375 42.660156 C 369.71875 42.605469 369.769531 42.605469 369.878906 42.554688 C 370.304688 42.339844 370.734375 42.125 371.164062 41.964844 C 371.378906 41.855469 371.644531 41.75 371.859375 41.695312 C 372.128906 41.644531 372.34375 41.589844 372.609375 41.535156 C 376.84375 40.730469 386.703125 42.769531 386.753906 42.554688 C 386.808594 42.445312 386.753906 42.285156 386.648438 42.179688 C 384.289062 39.820312 380.96875 38 377.648438 36.925781 C 382.253906 36.660156 387.078125 37.570312 391.953125 39.015625 C 388.84375 37.464844 385.523438 36.070312 382.09375 35.105469 C 387.128906 35.050781 391.578125 35.160156 397.042969 36.125 C 393.988281 32.855469 389.328125 30.980469 385.039062 30.121094 C 386.96875 29.210938 389.703125 29.425781 393.023438 30.5 C 393.988281 30.820312 395.113281 31.140625 396.132812 31.460938 C 396.828125 31.730469 399.828125 32.375 399.507812 32.160156 C 398.863281 31.730469 397.257812 30.605469 396.667969 30.230469 C 395.703125 29.640625 394.632812 28.996094 393.667969 28.460938 L 393.078125 28.140625 C 397.792969 27.496094 402.9375 27.710938 408.292969 28.890625 C 405.507812 27.230469 402.453125 25.835938 399.292969 24.605469 C 404.277344 23.855469 409.742188 24.550781 415.097656 26.480469 C 412.742188 24.925781 410.222656 23.480469 407.492188 22.355469 C 407.542969 22.355469 407.597656 22.355469 407.652344 22.355469 C 408.5625 22.300781 409.527344 22.300781 410.4375 22.246094 C 411.402344 22.246094 412.367188 22.246094 413.332031 22.246094 C 414.296875 22.246094 415.3125 22.300781 416.332031 22.300781 C 415.421875 21.765625 414.457031 21.230469 413.4375 20.746094 C 412.472656 20.316406 411.457031 19.835938 410.4375 19.460938 C 409.417969 19.085938 408.402344 18.710938 407.332031 18.390625 C 386.808594 12.171875 367.839844 19.835938 357.929688 32.800781 C 352.464844 10.03125 339.445312 -5.9375 324.011719 -11.027344 C 328.085938 -8.132812 331.835938 -4.648438 335.105469 -0.308594 C 334.515625 -0.792969 333.820312 -1.222656 333.175781 -1.648438 C 332.15625 -2.292969 331.085938 -2.773438 330.015625 -3.148438 C 328.246094 -3.738281 326.476562 -4.0625 324.65625 -4.0625 C 324.550781 -4.0625 324.441406 -3.898438 324.441406 -3.738281 C 324.441406 -3.578125 327.65625 -1.4375 329.050781 -0.203125 C 329.746094 0.441406 330.441406 1.082031 331.085938 1.832031 L 331.566406 2.367188 L 332.050781 2.90625 C 332.371094 3.28125 332.691406 3.65625 332.960938 4.03125 C 333.390625 4.566406 333.820312 5.207031 334.195312 5.851562 C 331.621094 5.101562 328.890625 4.992188 326.101562 6.28125 C 330.28125 8.90625 334.246094 11.101562 338.320312 13.886719 C 335.105469 13.675781 331.730469 14.851562 328.566406 16.78125 C 332.53125 16.300781 336.390625 17.316406 339.445312 20.210938 C 337.246094 20.210938 333.765625 20.960938 333.765625 21.230469 C 333.765625 21.390625 333.925781 21.605469 333.925781 21.605469 C 336.121094 22.675781 338.050781 24.230469 339.980469 25.945312 C 341.320312 27.230469 342.875 28.460938 344.105469 29.960938 C 344.050781 29.960938 344.050781 29.960938 344 29.960938 C 339.445312 25.355469 334.085938 22.40625 327.175781 19.726562 C 316.726562 15.441406 304.832031 14.800781 294.652344 19.460938 C 293.152344 20.105469 291.652344 20.960938 290.257812 21.871094 C 289.5625 22.300781 288.863281 22.835938 288.222656 23.316406 C 288.007812 23.425781 287.953125 23.695312 288.007812 23.960938 C 288.113281 24.230469 296.472656 21.816406 300.382812 21.605469 C 297.332031 23.210938 294.597656 25.730469 292.617188 28.621094 C 292.5625 28.730469 292.507812 28.890625 292.617188 28.996094 C 292.722656 29.160156 297.117188 26.855469 299.207031 26.210938 C 301.617188 25.460938 304.027344 25.085938 306.492188 25.140625 C 303.867188 26.695312 301.347656 28.835938 299.847656 31.625 C 299.796875 31.785156 299.742188 31.945312 299.847656 32.105469 C 300.332031 32.210938 306.601562 29.535156 309.011719 29.640625 C 308.6875 30.015625 308.367188 30.390625 308.101562 30.765625 L 306.976562 32.265625 C 306.492188 33.015625 305.957031 33.875 305.476562 34.675781 C 305.207031 35.214844 304.457031 36.605469 304.1875 37.140625 C 304.617188 36.714844 305.6875 35.695312 306.117188 35.265625 C 306.761719 34.730469 307.511719 34.140625 308.152344 33.605469 L 309.601562 32.640625 C 312.867188 30.765625 315.707031 30.230469 317.851562 30.285156 C 314.261719 32.265625 311.046875 35.160156 308.527344 38.429688 C 311.796875 36.125 315.332031 34.515625 319.136719 33.765625 C 317.101562 35.214844 313.566406 39.070312 313.617188 39.230469 C 313.78125 39.445312 320.53125 36.820312 323.316406 36.605469 C 320.796875 38 318.496094 39.765625 316.457031 41.695312 C 319.886719 39.765625 323.53125 38.535156 327.226562 38 C 325.460938 39.554688 324.011719 41.535156 323.15625 43.625 C 323.050781 43.625 322.996094 43.625 322.886719 43.679688 C 315.28125 45.5 307.9375 48.609375 301.457031 52.894531 C 292.132812 59.269531 284.632812 68.003906 278.632812 77.273438 C 278.523438 77.488281 278.523438 77.703125 278.683594 77.917969 C 278.898438 78.128906 281.792969 75.558594 283.023438 74.433594 C 282.488281 75.453125 282.007812 76.46875 281.683594 77.542969 C 281.632812 77.648438 281.792969 77.808594 281.898438 77.703125 C 284.738281 75.289062 287.203125 72.988281 289.722656 70.363281 C 288.277344 73.628906 287.417969 77.273438 287.203125 80.757812 C 289.238281 75.34375 292.722656 70.523438 297.492188 67.308594 C 296.042969 70.738281 295.242188 74.648438 295.457031 78.34375 C 295.5625 78.398438 298.617188 74.003906 299.742188 72.183594 C 300.867188 70.199219 303.277344 66.074219 304.402344 64.144531 C 303.0625 67.898438 302.367188 72.074219 303.332031 75.988281 C 303.332031 75.988281 304.402344 71.058594 305.367188 68.808594 C 305.796875 67.683594 306.332031 66.609375 306.976562 65.59375 C 307.5625 64.519531 308.207031 63.558594 308.902344 62.59375 C 310.027344 60.984375 311.527344 59.699219 312.816406 58.199219 C 312.816406 58.199219 312.816406 58.199219 312.816406 58.253906 C 309.921875 62.699219 307.9375 67.898438 307.242188 73.039062 C 308.367188 70.253906 309.816406 67.683594 311.527344 65.378906 C 311.476562 67.628906 311.796875 69.773438 312.226562 71.914062 C 312.28125 72.074219 312.332031 72.183594 312.492188 72.238281 C 312.707031 72.34375 314.851562 67.628906 315.921875 65.753906 C 316.941406 63.933594 318.066406 62.269531 319.296875 61.039062 C 318.011719 63.769531 317.691406 66.984375 318.011719 69.933594 C 318.546875 65.269531 321.121094 61.144531 325.136719 58.789062 C 323.90625 61.949219 323.476562 65.753906 324.441406 68.914062 C 322.566406 71.324219 320.960938 73.953125 319.566406 76.792969 C 319.136719 77.648438 318.761719 78.558594 318.332031 79.46875 C 317.957031 80.382812 317.582031 81.292969 317.261719 82.203125 C 314.582031 89.488281 313.136719 97.582031 312.761719 105.832031 C 312.707031 106.421875 312.707031 107.0625 312.707031 107.652344 C 312.386719 107.921875 312.066406 108.242188 311.742188 108.511719 C 308.046875 112.152344 305.3125 117.082031 303.761719 122.335938 C 303.921875 117.617188 305.796875 113.011719 308.957031 109.421875 C 306.226562 111.191406 303.8125 113.546875 302.097656 116.332031 C 302.097656 116.28125 302.097656 116.171875 302.097656 116.117188 C 302.097656 115.742188 302.097656 115.367188 302.152344 114.992188 C 302.152344 114.78125 302.207031 114.617188 302.207031 114.402344 C 302.261719 114.242188 302.3125 114.027344 302.367188 113.867188 C 303.277344 110.8125 307.726562 105.671875 307.617188 105.5625 C 307.5625 105.457031 307.457031 105.457031 307.351562 105.457031 C 305.152344 105.671875 302.902344 106.847656 301.1875 108.351562 C 302.527344 105.296875 304.671875 102.777344 307.136719 100.527344 C 305.152344 101.652344 303.222656 102.992188 301.507812 104.597656 C 303.117188 101.382812 304.617188 98.707031 306.976562 95.8125 C 303.972656 96.027344 301.296875 97.957031 299.367188 100.207031 C 299.472656 98.542969 300.4375 96.9375 302.152344 95.382812 C 302.6875 94.953125 303.222656 94.417969 303.761719 93.9375 C 304.136719 93.667969 305.527344 92.113281 305.3125 92.167969 C 304.832031 92.328125 303.652344 92.757812 303.171875 92.917969 C 302.472656 93.238281 301.777344 93.5625 301.132812 93.882812 L 300.757812 94.097656 C 301.886719 90.828125 303.707031 87.722656 306.171875 84.933594 C 304.242188 85.847656 302.367188 86.972656 300.597656 88.3125 C 301.722656 84.828125 303.972656 81.773438 306.867188 79.417969 C 305.152344 80.058594 303.4375 80.917969 301.886719 81.988281 C 301.886719 81.933594 301.9375 81.933594 301.9375 81.882812 C 302.207031 81.292969 302.527344 80.703125 302.796875 80.058594 C 303.117188 79.46875 303.4375 78.878906 303.707031 78.238281 C 304.027344 77.648438 304.402344 77.058594 304.722656 76.417969 C 304.082031 76.738281 303.4375 77.058594 302.847656 77.378906 C 302.261719 77.753906 301.671875 78.128906 301.082031 78.558594 C 300.492188 78.988281 299.957031 79.46875 299.421875 79.898438 C 288.113281 90.238281 287.3125 107.867188 293.527344 121.316406 C 287.792969 118.207031 281.898438 117.296875 274.398438 117.191406 C 264.21875 116.867188 253.714844 119.976562 246.214844 126.941406 C 245.089844 127.960938 244.019531 129.085938 243.054688 130.265625 C 242.570312 130.851562 242.144531 131.441406 241.660156 132.03125 C 241.5 132.191406 241.554688 132.460938 241.660156 132.621094 C 241.820312 132.835938 248.410156 128.28125 251.734375 126.886719 C 249.539062 129.140625 247.824219 132.03125 246.910156 135.03125 C 246.859375 135.140625 246.910156 135.246094 247.019531 135.355469 C 247.125 135.460938 250.289062 132.246094 251.949219 131.066406 C 253.824219 129.726562 255.804688 128.65625 258.003906 127.960938 C 256.128906 130.050781 254.574219 132.566406 253.984375 135.246094 C 253.929688 135.355469 253.984375 135.515625 254.089844 135.621094 C 254.574219 135.570312 259.234375 131.496094 261.324219 130.800781 C 261.164062 131.175781 261.003906 131.601562 260.84375 131.976562 L 260.308594 133.585938 C 260.09375 134.335938 259.878906 135.191406 259.664062 135.996094 C 259.558594 136.53125 259.34375 137.871094 259.234375 138.40625 C 259.503906 137.925781 260.144531 136.746094 260.414062 136.320312 C 260.84375 135.675781 261.324219 134.980469 261.753906 134.335938 L 262.71875 133.105469 C 265.023438 130.585938 267.378906 129.246094 269.253906 128.65625 C 266.683594 131.390625 264.699219 134.710938 263.414062 138.195312 C 265.609375 135.300781 268.238281 132.890625 271.34375 131.175781 C 269.949219 132.941406 267.96875 137.175781 268.074219 137.335938 C 268.289062 137.496094 273.378906 133.265625 275.738281 132.191406 C 273.96875 134.121094 272.414062 136.210938 271.183594 138.460938 C 273.648438 135.835938 276.433594 133.746094 279.488281 132.140625 C 279.488281 132.140625 279.488281 132.140625 279.488281 132.191406 C 278.363281 134.015625 277.667969 136.050781 277.507812 138.03125 C 280.453125 133.90625 285.8125 132.246094 290.578125 133.050781 C 289.988281 133.425781 289.453125 133.855469 288.917969 134.28125 C 283.722656 136.425781 279.167969 139.800781 276.167969 144.460938 C 273.058594 149.554688 270.808594 155.179688 269.789062 161.179688 C 268.398438 169.859375 269.46875 179.023438 271.71875 187.753906 C 271.773438 187.914062 271.933594 188.078125 272.148438 188.078125 C 272.363281 188.078125 272.46875 185.023438 272.46875 183.683594 C 272.738281 184.539062 273.113281 185.398438 273.59375 186.253906 C 273.648438 186.363281 273.808594 186.363281 273.808594 186.203125 C 273.917969 183.253906 273.917969 180.574219 273.808594 177.734375 C 274.933594 180.46875 276.648438 183.09375 278.632812 185.289062 C 276.488281 180.949219 275.578125 176.234375 276.328125 171.84375 C 277.558594 174.683594 279.488281 177.46875 281.792969 179.558594 C 281.898438 179.558594 280.933594 175.324219 280.453125 173.609375 C 279.917969 171.84375 278.738281 168.089844 278.257812 166.324219 C 279.757812 169.269531 281.898438 172.164062 284.738281 173.984375 C 284.738281 173.984375 282.382812 170.449219 281.578125 168.628906 C 281.148438 167.714844 280.828125 166.804688 280.507812 165.839844 C 280.183594 164.929688 279.96875 163.964844 279.757812 163 C 279.433594 161.449219 279.488281 159.894531 279.328125 158.339844 C 280.34375 162.519531 282.382812 166.699219 285.0625 170.128906 C 283.988281 167.878906 283.292969 165.574219 282.863281 163.269531 C 284.203125 164.664062 285.648438 165.789062 287.148438 166.859375 C 287.257812 166.914062 287.363281 166.964844 287.523438 166.914062 C 287.738281 166.859375 286.078125 162.949219 285.597656 161.234375 C 285.0625 159.570312 284.6875 158.019531 284.632812 156.625 C 285.542969 158.929688 287.3125 161.074219 289.238281 162.625 C 286.773438 159.519531 285.703125 155.714844 286.507812 152.179688 C 287.738281 154.75 289.777344 157.269531 292.1875 158.660156 C 290.417969 155.875 290.152344 152.714844 290.847656 149.929688 C 291.972656 152.125 293.472656 154.105469 295.132812 155.769531 C 295.402344 156.035156 295.832031 155.769531 295.667969 155.445312 C 294.757812 153.25 294.007812 151.054688 293.792969 148.964844 C 294.652344 150.515625 295.667969 151.964844 296.847656 153.25 C 296.097656 150.355469 295.992188 147.625 296.582031 145.050781 C 296.957031 146.605469 297.492188 148.105469 298.082031 149.5 C 298.402344 144.25 300.117188 139.585938 303.222656 135.78125 C 303.332031 135.675781 303.4375 135.570312 303.492188 135.460938 C 316.996094 175.484375 328.460938 208.277344 328.351562 254.410156 C 328.351562 254.410156 330.871094 254.515625 338.160156 254.410156 C 337.460938 208.542969 325.085938 177.199219 306.761719 133.210938 C 306.8125 133.210938 306.8125 133.210938 306.867188 133.265625 C 307.136719 133.371094 307.402344 133.53125 307.671875 133.691406 L 308.476562 134.230469 C 308.957031 134.605469 309.601562 135.140625 310.027344 135.570312 C 310.242188 135.78125 310.566406 136.105469 310.777344 136.320312 C 311.796875 137.335938 312.65625 138.515625 313.617188 139.746094 C 313.726562 139.910156 313.941406 139.800781 313.832031 139.640625 C 313.136719 137.871094 312.226562 135.996094 311.101562 134.390625 C 310.992188 134.28125 310.941406 134.121094 310.832031 134.015625 C 313.40625 135.191406 315.707031 137.121094 317.636719 139.585938 C 316.886719 136.746094 315.601562 133.960938 313.886719 131.496094 C 314.851562 132.085938 315.761719 132.835938 316.671875 133.691406 C 316.941406 134.015625 317.261719 134.28125 317.53125 134.605469 C 317.796875 134.925781 318.066406 135.246094 318.332031 135.621094 C 318.601562 135.945312 318.871094 136.320312 319.136719 136.640625 C 319.136719 136.640625 319.941406 137.710938 319.941406 137.710938 C 320.101562 137.925781 320.371094 137.765625 320.261719 137.550781 C 319.996094 136.695312 319.726562 135.78125 319.351562 134.925781 C 319.191406 134.496094 318.976562 134.066406 318.761719 133.640625 C 318.546875 133.210938 318.28125 132.78125 318.066406 132.355469 C 317.957031 132.191406 317.851562 131.976562 317.746094 131.816406 C 319.78125 132.300781 321.65625 133.265625 323.316406 135.03125 C 324.386719 136.15625 325.351562 137.550781 326.101562 138.996094 C 325.835938 138.195312 325.621094 137.390625 325.246094 136.585938 C 324.175781 134.066406 322.460938 131.816406 320.316406 130.210938 C 324.121094 132.460938 327.390625 135.945312 329.960938 139.960938 C 329.476562 137.765625 328.78125 135.515625 327.816406 133.371094 C 329.585938 135.140625 331.140625 137.175781 332.640625 139.210938 C 332.855469 139.480469 332.800781 136.640625 332.480469 135.515625 C 333.710938 136.90625 336.335938 140.925781 336.335938 140.550781 C 336.390625 139.480469 336.28125 138.300781 336.070312 137.175781 C 338.746094 139.105469 341.210938 141.355469 343.140625 144.410156 C 342.660156 141.785156 341.585938 138.996094 340.246094 136.53125 C 344.105469 138.730469 347.320312 142.371094 349.679688 146.605469 C 349.035156 144.355469 348.179688 142.105469 347 139.960938 C 349.25 141.515625 353.910156 144.730469 354.554688 144.945312 C 352.304688 180.734375 347 218.777344 341.425781 254.410156 L 354.230469 254.410156 C 358.359375 218.082031 362.269531 180.84375 362.914062 144.035156 C 363.234375 125.65625 362.699219 107.222656 361.304688 88.953125 C 360.660156 80.433594 359.804688 71.96875 358.785156 63.503906 C 361.25 67.09375 362.324219 71.808594 361.734375 76.042969 C 363.234375 72.664062 363.929688 68.753906 363.394531 65.003906 C 367.253906 68.433594 369.664062 74.003906 368.269531 79.308594 C 369.769531 77.808594 370.949219 75.828125 371.699219 73.578125 C 372.503906 77.21875 372.71875 81.023438 372.289062 84.828125 C 373.253906 82.257812 373.949219 79.523438 374.269531 76.738281 C 375.074219 79.417969 375.019531 86.488281 375.183594 86.597656 C 375.398438 86.703125 375.664062 86.597656 375.773438 86.382812 C 376.789062 84.292969 377.648438 82.042969 378.128906 79.683594 C 378.824219 83.488281 378.664062 87.292969 377.808594 91.152344 C 379.738281 87.722656 381.074219 83.757812 381.558594 79.792969 C 381.878906 80.328125 382.253906 80.808594 382.578125 81.292969 C 382.898438 83.542969 382.789062 85.847656 382.414062 88.257812 L 382.09375 89.917969 C 381.878906 90.722656 381.613281 91.578125 381.398438 92.382812 C 381.183594 92.917969 380.699219 94.257812 380.488281 94.792969 C 380.863281 94.367188 381.824219 93.1875 382.148438 92.757812 C 382.628906 92.0625 383.21875 91.3125 383.703125 90.5625 L 384.613281 89.007812 C 384.828125 88.632812 385.039062 88.203125 385.253906 87.828125 C 386.167969 90.027344 386.003906 96.5625 386.113281 97.097656 C 386.273438 97.257812 386.542969 97.207031 386.703125 97.042969 C 388.523438 94.6875 389.433594 91.6875 389.917969 88.6875 C 391.683594 93.078125 392.007812 97.792969 391.203125 102.507812 C 391.203125 102.617188 391.257812 102.777344 391.363281 102.832031 C 391.523438 102.9375 394.042969 98.492188 394.632812 96.078125 C 394.847656 95.117188 395.007812 94.152344 395.113281 93.132812 C 396.292969 96.882812 396.988281 105.402344 397.257812 105.457031 C 397.523438 105.511719 397.792969 105.347656 397.847656 105.082031 C 399.453125 98.757812 399.1875 91.847656 397.3125 85.363281 C 394.953125 77.21875 390.132812 70.148438 384.289062 64.09375 C 385.039062 62.539062 385.46875 60.878906 385.414062 59.21875 C 385.414062 59.21875 385.414062 59.164062 385.414062 59.164062 C 387.667969 61.46875 389.382812 64.144531 390.292969 67.199219 C 390.453125 63.933594 389.863281 60.769531 388.578125 57.769531 C 391.683594 60.074219 393.347656 63.289062 394.308594 66.773438 C 394.472656 64.09375 394.257812 61.414062 393.238281 58.949219 C 396.453125 61.628906 398.273438 65.21875 398.863281 69.183594 C 399.882812 65.109375 399.722656 60.929688 398.167969 57.394531 C 400.738281 59.324219 402.238281 61.894531 402.882812 64.84375 L 403.152344 66.234375 C 403.203125 66.933594 403.257812 67.683594 403.3125 68.378906 C 403.3125 68.863281 403.203125 70.148438 403.203125 70.628906 C 403.472656 70.148438 404.0625 68.808594 404.328125 68.324219 C 404.597656 67.574219 404.972656 66.71875 405.242188 65.96875 L 405.667969 64.359375 C 405.882812 63.449219 406.042969 62.539062 406.097656 61.628906 C 408.457031 63.71875 410.222656 66.234375 410.492188 69.34375 C 411.347656 66.449219 410.867188 63.558594 409.792969 61.039062 C 414.886719 63.664062 418.207031 67.789062 418.582031 72.933594 C 419.761719 66.558594 416.761719 61.253906 411.777344 57.019531 Z M 351.554688 60.289062 Z M 323.210938 43.679688 C 327.65625 40.304688 333.765625 40.570312 338.425781 43.25 C 338.160156 43.304688 337.890625 43.410156 337.570312 43.464844 C 332.855469 42.660156 327.976562 42.605469 323.210938 43.679688 Z M 331.355469 60.289062 C 331.085938 61.039062 330.871094 61.789062 330.65625 62.59375 C 330.015625 63.128906 329.371094 63.664062 328.726562 64.253906 C 327.226562 65.648438 325.835938 67.199219 324.496094 68.859375 C 325.460938 65.003906 328.140625 62.109375 331.355469 60.289062 Z M 325.460938 88.472656 C 325.835938 91.632812 326.53125 94.902344 327.65625 97.742188 C 326.101562 98.382812 324.601562 99.132812 323.101562 99.992188 C 323.261719 95.867188 323.960938 91.902344 325.460938 88.472656 Z M 321.546875 96.242188 C 321.710938 97.632812 321.921875 99.082031 322.246094 100.472656 C 321.28125 101.0625 320.316406 101.652344 319.40625 102.296875 C 320.15625 100.207031 321.011719 97.792969 321.546875 96.242188 Z M 314.957031 105.722656 C 315.65625 103.582031 316.40625 101.492188 317.15625 99.402344 C 317.207031 100.847656 317.371094 102.296875 317.53125 103.6875 C 316.621094 104.332031 315.761719 104.972656 314.957031 105.722656 Z M 354.5 144.035156 C 354.5 144.410156 354.445312 144.785156 354.445312 145.105469 C 353.644531 143.390625 352.730469 141.785156 351.769531 140.175781 C 352.730469 140.820312 353.695312 141.515625 354.609375 142.160156 C 354.554688 142.800781 354.554688 143.390625 354.5 144.035156 Z M 354.769531 138.40625 C 351.285156 134.496094 347.375 131.066406 343.195312 128.226562 C 342.5 127.746094 341.75 127.316406 341.050781 126.835938 C 340.300781 126.40625 339.550781 125.976562 338.855469 125.601562 C 334.675781 123.40625 330.175781 121.960938 325.78125 121.476562 C 323.101562 121.15625 320.476562 121.207031 317.90625 121.582031 C 317.636719 121.636719 317.371094 121.691406 317.101562 121.746094 C 320.046875 120.03125 323.691406 119.441406 326.960938 120.671875 C 325.835938 119.171875 324.226562 117.992188 322.40625 117.136719 C 325.566406 116.761719 328.78125 116.867188 331.996094 117.617188 C 329.90625 116.546875 327.65625 115.691406 325.300781 115.15625 C 327.65625 114.726562 333.605469 115.367188 333.765625 115.207031 C 333.871094 115.046875 333.820312 114.78125 333.65625 114.671875 C 331.996094 113.546875 330.121094 112.636719 328.140625 111.992188 C 331.40625 111.726562 334.621094 112.207031 337.785156 113.277344 C 335.050781 111.242188 331.78125 109.6875 328.460938 108.9375 C 328.941406 108.726562 329.371094 108.402344 329.855469 108.1875 C 331.78125 108.082031 333.765625 108.402344 335.746094 108.9375 L 337.140625 109.367188 C 337.785156 109.636719 338.535156 109.957031 339.175781 110.226562 C 339.605469 110.4375 340.730469 111.027344 341.160156 111.242188 C 340.785156 110.867188 339.925781 109.902344 339.605469 109.582031 C 339.070312 109.101562 338.480469 108.511719 337.890625 108.027344 L 336.65625 107.0625 C 336.335938 106.847656 336.015625 106.636719 335.695312 106.421875 C 337.621094 105.832031 343.140625 106.527344 343.625 106.472656 C 343.785156 106.3125 343.730469 106.097656 343.625 105.9375 C 341.800781 104.117188 339.285156 102.992188 336.820312 102.347656 C 340.675781 101.171875 344.695312 101.332031 348.660156 102.457031 C 348.765625 102.457031 348.875 102.457031 348.929688 102.347656 C 349.035156 102.242188 345.5 99.617188 343.515625 98.867188 C 342.710938 98.597656 341.910156 98.332031 341.050781 98.167969 C 344.320312 97.472656 351.605469 97.582031 351.660156 97.367188 C 351.769531 97.152344 351.605469 96.882812 351.394531 96.777344 C 346.195312 94.792969 340.300781 94.417969 334.621094 95.492188 C 332.316406 95.917969 330.066406 96.617188 327.871094 97.527344 C 327.765625 93.453125 328.515625 89.757812 329.640625 86.273438 C 330.175781 87.5625 330.765625 88.738281 331.515625 89.757812 C 331.730469 90.132812 331.566406 84.558594 331.835938 82.363281 C 332.265625 83.703125 333.980469 86.488281 333.980469 86.113281 C 334.085938 83.167969 334.140625 80.113281 334.621094 77.273438 C 335.105469 79.953125 335.90625 82.683594 336.820312 85.097656 C 336.550781 79.46875 337.355469 73.953125 339.335938 69.289062 C 338.425781 72.238281 338.265625 75.558594 338.910156 78.71875 C 339.070312 79.683594 339.390625 80.648438 339.660156 81.613281 C 339.445312 79.632812 339.390625 77.703125 339.710938 75.878906 C 340.085938 73.09375 341.210938 70.898438 342.710938 69.128906 C 342.710938 69.398438 342.710938 69.613281 342.765625 69.878906 C 342.820312 70.46875 342.875 71.003906 342.925781 71.539062 C 343.035156 72.074219 343.140625 72.664062 343.25 73.203125 C 343.460938 74.273438 343.785156 75.34375 344.050781 76.363281 C 344.105469 76.628906 344.480469 76.628906 344.480469 76.308594 C 344.480469 76.253906 344.535156 74.753906 344.535156 74.703125 C 344.535156 74.164062 344.535156 73.683594 344.589844 73.148438 C 344.640625 72.664062 344.640625 72.128906 344.695312 71.648438 C 344.75 71.164062 344.855469 70.683594 344.910156 70.199219 C 345.175781 68.753906 345.5 67.414062 345.980469 66.234375 C 345.925781 69.773438 346.570312 73.308594 347.640625 76.578125 C 347.855469 72.933594 348.714844 69.558594 350.265625 66.71875 C 350.265625 66.878906 350.265625 67.09375 350.265625 67.253906 C 350.214844 69.558594 350.589844 71.914062 351.070312 74.164062 C 351.125 74.378906 351.339844 74.378906 351.339844 74.113281 C 351.394531 72.34375 351.445312 70.574219 351.714844 68.914062 C 351.769531 68.539062 351.820312 68.058594 351.929688 67.683594 C 352.035156 66.984375 352.304688 66.074219 352.519531 65.378906 L 352.894531 64.308594 C 353.054688 63.984375 353.214844 63.664062 353.375 63.34375 C 353.480469 63.183594 353.589844 63.019531 353.695312 62.859375 C 354.394531 71.699219 354.929688 80.59375 355.195312 89.4375 C 355.785156 105.886719 355.625 122.171875 354.769531 138.40625 Z M 380.058594 60.503906 C 379.199219 59.753906 378.234375 59.054688 377.273438 58.359375 C 379.898438 59.429688 381.933594 61.09375 382.898438 63.234375 C 381.988281 62.269531 381.023438 61.359375 380.058594 60.503906 Z M 380.058594 60.503906 "/></g><g clip-rule="nonzero" clip-path="url(#ba605867ce)"><path style=" stroke:none;fill-rule:nonzero;fill:#fff9f3;fill-opacity:1;" d="M 100.960938 155.871094 C 100.367188 155.78125 98.859375 155.910156 98.925781 156.527344 C 98.992188 157.140625 99.144531 157.820312 98.96875 158.105469 C 98.792969 158.390625 98.089844 159.550781 98.089844 159.550781 C 98.089844 159.550781 97.410156 159.023438 96.710938 158.871094 C 96.007812 158.714844 94.082031 158.5625 93.730469 158.367188 C 93.382812 158.167969 90.292969 155.925781 89.667969 155.398438 C 89.042969 154.875 87.109375 153.5625 86.289062 152.707031 C 85.464844 151.855469 85.007812 152.082031 85.007812 150.964844 C 85.007812 149.847656 84.546875 149.324219 83.726562 148.535156 C 82.90625 147.746094 82.449219 146.929688 82.285156 145.445312 C 82.121094 143.96875 80.972656 138.945312 80.511719 137.960938 C 80.046875 136.980469 79.425781 134.253906 79.359375 133.164062 C 79.292969 132.082031 79.753906 131.589844 79.652344 130.410156 C 79.558594 129.226562 79.457031 128.996094 80.144531 128.605469 C 80.832031 128.210938 81.65625 127.292969 81.65625 126.929688 C 81.65625 126.570312 79.390625 126.535156 78.996094 126.242188 C 78.601562 125.949219 78.402344 125.390625 78.042969 124.964844 C 77.683594 124.535156 77.449219 123.878906 77.449219 123.878906 L 77.84375 123.484375 C 77.84375 123.484375 79.453125 124.242188 80.503906 123.976562 C 81.558594 123.710938 81.984375 120.792969 82.28125 120.070312 C 82.574219 119.347656 83.660156 117.738281 83.757812 116.953125 C 83.855469 116.164062 83.921875 115.441406 83.921875 115.441406 C 83.921875 115.441406 87.140625 113.933594 88.160156 112.6875 C 89.179688 111.441406 89.800781 107.003906 89.375 106.480469 C 88.949219 105.957031 84.515625 106.316406 84.121094 106.285156 C 83.726562 106.25 80.839844 102.035156 78.90625 101.941406 C 76.96875 101.84375 73.816406 102.171875 71.914062 103.054688 C 70.007812 103.941406 68.402344 106.078125 68.101562 107.390625 C 67.808594 108.703125 68.464844 112.085938 68.234375 112.746094 C 68.003906 113.402344 64.390625 115.105469 64.027344 115.371094 C 63.667969 115.636719 63.933594 116.222656 63.933594 116.222656 C 63.933594 116.222656 59.238281 114.910156 57.792969 115.105469 C 56.351562 115.304688 54.25 115.664062 53.425781 116.683594 C 52.601562 117.703125 49.746094 120.984375 49.058594 122.234375 C 48.371094 123.480469 47.582031 124.929688 47.054688 125.058594 C 46.53125 125.191406 42.621094 125.585938 42.230469 125.910156 C 41.835938 126.238281 39.671875 130.738281 38.617188 134.613281 C 37.570312 138.484375 36.78125 146.765625 37.109375 148.207031 C 37.433594 149.652344 37.765625 152.738281 37.632812 154.378906 C 37.503906 156.019531 39.074219 158.386719 39.210938 159.304688 C 39.34375 160.226562 40.882812 163.179688 40.652344 163.574219 C 40.421875 163.96875 39.308594 164.757812 39.933594 165.609375 C 40.558594 166.460938 42.824219 167.414062 42.824219 167.414062 C 42.824219 167.414062 42.753906 172.140625 43.085938 173.652344 C 43.417969 175.160156 44.632812 175.523438 44.632812 175.523438 L 45.652344 174.769531 C 45.652344 174.769531 44.304688 173.914062 44.433594 172.039062 C 44.5625 170.167969 44.597656 167.707031 44.597656 167.707031 L 45.910156 167.738281 C 45.910156 167.738281 46.929688 169.578125 48.667969 170.332031 L 49.488281 169.511719 C 49.488281 169.511719 48.242188 168.722656 47.75 167.640625 C 47.75 167.640625 49.75 168.230469 50.867188 168.195312 C 51.980469 168.164062 53.296875 167.640625 53.296875 167.640625 C 53.296875 167.640625 53.65625 171.511719 53.855469 171.941406 C 54.050781 172.367188 54.738281 172.367188 54.738281 172.566406 C 54.738281 172.761719 55.855469 178.410156 57.203125 180.347656 C 58.550781 182.285156 59.761719 182.878906 59.761719 182.878906 C 59.761719 182.878906 59.621094 184.324219 59.601562 185.878906 L 20.15625 220.066406 C 19.546875 219.464844 18.996094 219.105469 18.851562 219.238281 C 18.710938 219.371094 19.011719 219.945312 19.546875 220.59375 L 13.273438 226.039062 C 13.273438 226.039062 13.1875 226.398438 13.347656 226.59375 C 13.507812 226.789062 13.734375 226.738281 13.734375 226.738281 L 20.164062 221.277344 C 20.773438 221.882812 21.328125 222.238281 21.472656 222.105469 C 21.617188 221.976562 21.320312 221.40625 20.78125 220.753906 L 59.65625 187.753906 C 59.710938 188.390625 59.808594 188.9375 59.976562 189.273438 C 60.664062 190.652344 61.058594 192.722656 60.960938 193.511719 C 60.863281 194.300781 60.667969 195.132812 60.667969 195.578125 C 60.667969 196.023438 60.816406 196.960938 60.027344 197.550781 C 59.238281 198.144531 58.203125 199.964844 56.921875 200.65625 C 55.640625 201.34375 50.613281 203.808594 47.609375 205.632812 C 44.605469 207.453125 39.929688 211.148438 38.839844 212.378906 C 37.757812 213.609375 36.085938 214.988281 35.785156 214.988281 C 35.488281 214.988281 33.195312 214.859375 32.09375 215.136719 C 30.996094 215.414062 29.914062 215.925781 29.828125 215.925781 C 29.746094 215.925781 28.746094 215.726562 27.921875 216.070312 C 27.101562 216.414062 28.414062 222.6875 28.792969 223.359375 C 29.167969 224.03125 29.957031 224.542969 30.007812 225.476562 C 30.058594 226.414062 30.679688 231.058594 31.453125 233.03125 C 32.222656 235.003906 34.800781 238.203125 35.574219 238.5 C 36.34375 238.792969 37.246094 237.90625 37.246094 237.90625 C 37.246094 237.90625 37.917969 237.433594 37.753906 236.414062 C 37.589844 235.394531 37.066406 232.996094 37.292969 232.046875 C 37.519531 231.09375 38.835938 229.847656 38.933594 228.5 C 39.03125 227.152344 39.226562 225.316406 39.492188 225.085938 C 39.753906 224.851562 42.316406 223.769531 42.511719 223.246094 C 42.710938 222.722656 44.1875 222.953125 44.351562 222.164062 C 44.515625 221.375 46.546875 219.832031 47.765625 218.847656 C 48.980469 217.863281 53.542969 214.285156 55.285156 213.203125 C 57.027344 212.117188 59.027344 211.757812 59.652344 211.492188 C 60.277344 211.230469 60.898438 210.148438 61.359375 209.917969 C 61.820312 209.683594 63.824219 208.867188 64.777344 208.472656 C 65.726562 208.078125 67.402344 207.554688 68.0625 207.09375 C 68.71875 206.628906 69.605469 205.222656 69.605469 205.222656 C 69.605469 205.222656 69.933594 211.625 69.703125 212.871094 C 69.46875 214.117188 69.273438 219.796875 69.273438 222.128906 C 69.273438 224.464844 69.339844 229.089844 69.539062 229.453125 C 69.734375 229.8125 70.882812 230.078125 70.722656 230.472656 C 70.558594 230.867188 69.636719 231.769531 69.769531 232.488281 C 69.898438 233.210938 70.722656 234.886719 70.671875 236.085938 C 70.621094 237.285156 70.441406 238.390625 71.066406 238.5625 C 71.691406 238.730469 73.804688 238.960938 76.238281 238.925781 C 78.667969 238.890625 78.554688 238.121094 79.027344 237.972656 C 79.503906 237.828125 81.589844 237.859375 82.804688 238.253906 C 84.023438 238.648438 86.648438 238.941406 88.734375 238.796875 C 90.820312 238.648438 93 238.289062 93.53125 237.925781 C 94.054688 237.566406 93.234375 236.511719 93.234375 236.511719 C 93.234375 236.511719 92.644531 234.789062 91.117188 234.558594 C 89.589844 234.328125 88.011719 234.128906 86.964844 233.554688 C 85.914062 232.980469 85.160156 231.898438 84.320312 231.386719 C 83.882812 231.121094 83.21875 230.652344 82.652344 230.160156 L 83.824219 225.464844 C 84.671875 225.601562 85.332031 225.570312 85.367188 225.378906 C 85.410156 225.1875 84.832031 224.898438 84.019531 224.679688 L 98.210938 167.835938 C 98.863281 167.929688 99.625 167.796875 99.753906 167.671875 C 99.9375 167.488281 100.078125 167.039062 100.078125 167.039062 C 100.078125 167.039062 100.957031 166.800781 101.242188 166.515625 C 101.527344 166.230469 101.351562 165.683594 101.351562 165.683594 C 101.351562 165.683594 102.03125 165.398438 102.074219 164.851562 C 102.113281 164.308594 101.765625 163.886719 101.765625 163.886719 C 101.765625 163.886719 102.464844 163.273438 102.425781 162.683594 C 102.382812 162.09375 101.484375 161.0625 101.132812 160.824219 C 100.785156 160.585938 101.089844 159.117188 101.398438 158.8125 C 101.703125 158.503906 103.105469 158.109375 103.144531 157.566406 C 103.1875 157.019531 101.546875 155.964844 100.957031 155.878906 Z M 83.125 224.488281 C 82.28125 224.355469 81.621094 224.386719 81.578125 224.578125 C 81.539062 224.765625 82.117188 225.054688 82.933594 225.273438 L 81.9375 229.460938 C 81.757812 229.253906 81.621094 229.0625 81.566406 228.898438 C 81.328125 228.199219 81.457031 227.824219 81.0625 227.519531 C 80.667969 227.210938 80.144531 226.859375 80.144531 226.859375 C 80.144531 226.859375 80.933594 224.804688 80.84375 224.164062 C 80.757812 223.53125 79.992188 220.730469 79.925781 219.960938 C 79.859375 219.191406 81.257812 214.582031 80.863281 212.859375 C 80.46875 211.132812 80.125 209.363281 80.269531 208.324219 C 80.417969 207.289062 82.785156 204.53125 82.785156 202.070312 C 82.785156 199.605469 81.359375 195.71875 81.109375 194.191406 C 80.863281 192.664062 80.714844 188.671875 80.269531 186.851562 C 79.824219 185.03125 78.84375 183.648438 78.449219 181.679688 C 78.054688 179.707031 77.121094 178.675781 77.21875 177.835938 C 77.316406 176.996094 77.5625 176.015625 77.863281 175.273438 C 78.15625 174.535156 78.046875 173.175781 78.046875 173.175781 C 78.046875 173.175781 78.726562 173.089844 79.03125 172.980469 C 79.339844 172.871094 79.496094 172.367188 79.496094 172.367188 C 79.496094 172.367188 80.371094 172.804688 80.742188 172.675781 C 81.113281 172.542969 81.421875 171.753906 81.421875 171.753906 C 81.421875 171.753906 82.40625 171.777344 82.777344 171.40625 C 83.148438 171.035156 83.191406 170.222656 83.191406 170.222656 C 83.191406 170.222656 84.460938 169.875 84.660156 169.5 C 84.855469 169.128906 84.210938 167.652344 84.394531 167.46875 C 84.578125 167.28125 86.0625 167.179688 86.84375 167.074219 C 87.632812 166.964844 86.101562 165.015625 85.355469 164.398438 C 84.613281 163.789062 84.085938 163.570312 83.777344 163.789062 C 83.472656 164.003906 83.382812 164.421875 83.097656 164.574219 C 82.8125 164.730469 82.441406 164.859375 82.441406 164.859375 C 82.441406 164.859375 81.699219 163.832031 80.863281 163.460938 C 80.03125 163.085938 78.324219 163.261719 78.324219 163.261719 C 78.324219 163.261719 77.40625 162.234375 77.25 161.820312 C 77.09375 161.402344 77.753906 158.292969 77.753906 158.292969 C 77.753906 158.292969 81.824219 161.03125 83.445312 162.519531 C 85.066406 164.007812 88.613281 165.015625 89.644531 165.253906 C 90.675781 165.496094 92.25 165.738281 92.664062 165.648438 C 93.082031 165.5625 93.257812 165.148438 93.257812 165.148438 C 93.257812 165.148438 93.890625 165.167969 94.304688 165.519531 C 94.625 165.789062 95.976562 166.496094 96.832031 167.058594 L 83.125 224.484375 Z M 83.125 224.488281 "/></g><path style="fill:none;stroke-width:7;stroke-linecap:butt;stroke-linejoin:miter;stroke:#012c18;stroke-opacity:1;stroke-miterlimit:4;" d="M -0.00048718 3.501027 L 12.885504 3.501027 " transform="matrix(0.00000000252846,1.448703,-1.448703,0.00000000252846,248.56804,200.582737)"/><path style="fill:none;stroke-width:6;stroke-linecap:butt;stroke-linejoin:miter;stroke:#012c18;stroke-opacity:1;stroke-miterlimit:4;" d="M -0.000487179 2.998663 L 12.885504 2.998663 " transform="matrix(0.00000000252846,1.448703,-1.448703,0.00000000252846,233.555109,200.582737)"/><path style="fill:none;stroke-width:5;stroke-linecap:butt;stroke-linejoin:miter;stroke:#012c18;stroke-opacity:1;stroke-miterlimit:4;" d="M -0.000487178 2.501101 L 12.885504 2.501101 " transform="matrix(0.00000000252846,1.448703,-1.448703,0.00000000252846,220.006164,200.582737)"/><path style="fill:none;stroke-width:4;stroke-linecap:butt;stroke-linejoin:miter;stroke:#012c18;stroke-opacity:1;stroke-miterlimit:4;" d="M -0.000487177 2.000251 L 12.885504 2.000251 " transform="matrix(0.00000000252846,1.448703,-1.448703,0.00000000252846,207.921206,200.582737)"/><path style="fill:none;stroke-width:3;stroke-linecap:butt;stroke-linejoin:miter;stroke:#012c18;stroke-opacity:1;stroke-miterlimit:4;" d="M -0.000487177 1.498829 L 12.885504 1.498829 " transform="matrix(0.00000000252846,1.448703,-1.448703,0.00000000252846,197.300263,200.582737)"/><path style="fill:none;stroke-width:2;stroke-linecap:butt;stroke-linejoin:miter;stroke:#012c18;stroke-opacity:1;stroke-miterlimit:4;" d="M -0.000487176 0.999491 L 12.885504 0.999491 " transform="matrix(0.00000000252846,1.448703,-1.448703,0.00000000252846,188.143278,200.582737)"/><g style="fill:#012c18;fill-opacity:1;"><g transform="translate(256.277013, 219.484577)"><path style="stroke:none" d="M 0.265625 -18.921875 L 9.453125 -18.921875 L 9.453125 -16.21875 L 6.359375 -16.21875 L 6.359375 0 L 3.375 0 L 3.375 -16.21875 L 0.265625 -16.21875 Z M 0.265625 -18.921875 "/></g></g><g style="fill:#012c18;fill-opacity:1;"><g transform="translate(268.711107, 219.484577)"><path style="stroke:none" d="M 4.046875 0 L 1.078125 0 L 1.078125 -18.921875 L 4.046875 -18.921875 L 4.046875 -10.8125 L 7.4375 -10.8125 L 7.4375 -18.921875 L 10.46875 -18.921875 L 10.46875 0 L 7.4375 0 L 7.4375 -8.109375 L 4.046875 -8.109375 Z M 4.046875 0 "/></g></g><g style="fill:#012c18;fill-opacity:1;"><g transform="translate(282.956034, 219.484577)"><path style="stroke:none" d="M 4.046875 -10.953125 L 8.140625 -10.953125 L 8.140625 -8.25 L 4.046875 -8.25 L 4.046875 -2.703125 L 9.1875 -2.703125 L 9.1875 0 L 1.078125 0 L 1.078125 -18.921875 L 9.1875 -18.921875 L 9.1875 -16.21875 L 4.046875 -16.21875 Z M 4.046875 -10.953125 "/></g></g><g style="fill:#012c18;fill-opacity:1;"><g transform="translate(295.606363, 219.484577)"><path style="stroke:none" d=""/></g></g><g style="fill:#012c18;fill-opacity:1;"><g transform="translate(302.499858, 219.484577)"><path style="stroke:none" d="M 5.546875 -10.546875 L 9.703125 -10.546875 L 9.703125 -4.546875 C 9.703125 -3.015625 9.328125 -1.835938 8.578125 -1.015625 C 7.828125 -0.191406 6.722656 0.21875 5.265625 0.21875 C 3.804688 0.21875 2.703125 -0.191406 1.953125 -1.015625 C 1.210938 -1.835938 0.84375 -3.015625 0.84375 -4.546875 L 0.84375 -14.375 C 0.84375 -15.90625 1.210938 -17.082031 1.953125 -17.90625 C 2.703125 -18.726562 3.804688 -19.140625 5.265625 -19.140625 C 6.722656 -19.140625 7.828125 -18.726562 8.578125 -17.90625 C 9.328125 -17.082031 9.703125 -15.90625 9.703125 -14.375 L 9.703125 -12.546875 L 6.890625 -12.546875 L 6.890625 -14.5625 C 6.890625 -15.25 6.75 -15.734375 6.46875 -16.015625 C 6.195312 -16.296875 5.828125 -16.4375 5.359375 -16.4375 C 4.890625 -16.4375 4.515625 -16.296875 4.234375 -16.015625 C 3.953125 -15.734375 3.8125 -15.25 3.8125 -14.5625 L 3.8125 -4.359375 C 3.8125 -3.671875 3.953125 -3.191406 4.234375 -2.921875 C 4.515625 -2.648438 4.890625 -2.515625 5.359375 -2.515625 C 5.828125 -2.515625 6.195312 -2.648438 6.46875 -2.921875 C 6.75 -3.191406 6.890625 -3.671875 6.890625 -4.359375 L 6.890625 -7.84375 L 5.546875 -7.84375 Z M 5.546875 -10.546875 "/></g></g><g style="fill:#012c18;fill-opacity:1;"><g transform="translate(315.74478, 219.484577)"><path style="stroke:none" d="M 7.296875 0 C 7.265625 -0.125 7.226562 -0.238281 7.1875 -0.34375 C 7.15625 -0.457031 7.125 -0.59375 7.09375 -0.75 C 7.070312 -0.914062 7.054688 -1.125 7.046875 -1.375 C 7.035156 -1.625 7.03125 -1.941406 7.03125 -2.328125 L 7.03125 -5.296875 C 7.03125 -6.179688 6.875 -6.800781 6.5625 -7.15625 C 6.257812 -7.519531 5.765625 -7.703125 5.078125 -7.703125 L 4.046875 -7.703125 L 4.046875 0 L 1.078125 0 L 1.078125 -18.921875 L 5.5625 -18.921875 C 7.113281 -18.921875 8.234375 -18.5625 8.921875 -17.84375 C 9.617188 -17.125 9.96875 -16.03125 9.96875 -14.5625 L 9.96875 -13.078125 C 9.96875 -11.128906 9.320312 -9.851562 8.03125 -9.25 C 8.78125 -8.9375 9.296875 -8.429688 9.578125 -7.734375 C 9.859375 -7.046875 10 -6.207031 10 -5.21875 L 10 -2.296875 C 10 -1.828125 10.015625 -1.414062 10.046875 -1.0625 C 10.085938 -0.71875 10.179688 -0.363281 10.328125 0 Z M 4.046875 -16.21875 L 4.046875 -10.40625 L 5.21875 -10.40625 C 5.78125 -10.40625 6.21875 -10.546875 6.53125 -10.828125 C 6.84375 -11.117188 7 -11.644531 7 -12.40625 L 7 -14.265625 C 7 -14.953125 6.875 -15.445312 6.625 -15.75 C 6.382812 -16.0625 6.003906 -16.21875 5.484375 -16.21875 Z M 4.046875 -16.21875 "/></g></g><g style="fill:#012c18;fill-opacity:1;"><g transform="translate(329.314032, 219.484577)"><path style="stroke:none" d="M 4.046875 -10.953125 L 8.140625 -10.953125 L 8.140625 -8.25 L 4.046875 -8.25 L 4.046875 -2.703125 L 9.1875 -2.703125 L 9.1875 0 L 1.078125 0 L 1.078125 -18.921875 L 9.1875 -18.921875 L 9.1875 -16.21875 L 4.046875 -16.21875 Z M 4.046875 -10.953125 "/></g></g><g style="fill:#012c18;fill-opacity:1;"><g transform="translate(341.964361, 219.484577)"><path style="stroke:none" d="M 10.703125 0 L 7.703125 0 L 7.1875 -3.4375 L 3.546875 -3.4375 L 3.03125 0 L 0.296875 0 L 3.328125 -18.921875 L 7.671875 -18.921875 Z M 3.921875 -6 L 6.78125 -6 L 5.359375 -15.5625 Z M 3.921875 -6 "/></g></g><g style="fill:#012c18;fill-opacity:1;"><g transform="translate(355.668744, 219.484577)"><path style="stroke:none" d="M 0.265625 -18.921875 L 9.453125 -18.921875 L 9.453125 -16.21875 L 6.359375 -16.21875 L 6.359375 0 L 3.375 0 L 3.375 -16.21875 L 0.265625 -16.21875 Z M 0.265625 -18.921875 "/></g></g><g style="fill:#012c18;fill-opacity:1;"><g transform="translate(368.102837, 219.484577)"><path style="stroke:none" d=""/></g></g><g style="fill:#012c18;fill-opacity:1;"><g transform="translate(374.996333, 219.484577)"><path style="stroke:none" d="M 3.8125 -4.359375 C 3.8125 -3.671875 3.953125 -3.1875 4.234375 -2.90625 C 4.515625 -2.625 4.890625 -2.484375 5.359375 -2.484375 C 5.828125 -2.484375 6.195312 -2.625 6.46875 -2.90625 C 6.75 -3.1875 6.890625 -3.671875 6.890625 -4.359375 L 6.890625 -14.5625 C 6.890625 -15.25 6.75 -15.734375 6.46875 -16.015625 C 6.195312 -16.296875 5.828125 -16.4375 5.359375 -16.4375 C 4.890625 -16.4375 4.515625 -16.296875 4.234375 -16.015625 C 3.953125 -15.734375 3.8125 -15.25 3.8125 -14.5625 Z M 0.84375 -14.375 C 0.84375 -15.90625 1.226562 -17.082031 2 -17.90625 C 2.769531 -18.726562 3.890625 -19.140625 5.359375 -19.140625 C 6.816406 -19.140625 7.929688 -18.726562 8.703125 -17.90625 C 9.472656 -17.082031 9.859375 -15.90625 9.859375 -14.375 L 9.859375 -4.546875 C 9.859375 -3.015625 9.472656 -1.835938 8.703125 -1.015625 C 7.929688 -0.191406 6.816406 0.21875 5.359375 0.21875 C 3.890625 0.21875 2.769531 -0.191406 2 -1.015625 C 1.226562 -1.835938 0.84375 -3.015625 0.84375 -4.546875 Z M 0.84375 -14.375 "/></g></g><g style="fill:#012c18;fill-opacity:1;"><g transform="translate(388.40342, 219.484577)"><path style="stroke:none" d="M 3.921875 -18.921875 L 3.921875 -4.328125 C 3.921875 -3.640625 4.054688 -3.160156 4.328125 -2.890625 C 4.609375 -2.617188 4.984375 -2.484375 5.453125 -2.484375 C 5.921875 -2.484375 6.296875 -2.617188 6.578125 -2.890625 C 6.859375 -3.160156 7 -3.640625 7 -4.328125 L 7 -18.921875 L 9.8125 -18.921875 L 9.8125 -4.515625 C 9.8125 -2.984375 9.4375 -1.804688 8.6875 -0.984375 C 7.9375 -0.160156 6.832031 0.25 5.375 0.25 C 3.914062 0.25 2.8125 -0.160156 2.0625 -0.984375 C 1.320312 -1.804688 0.953125 -2.984375 0.953125 -4.515625 L 0.953125 -18.921875 Z M 3.921875 -18.921875 "/></g></g><g style="fill:#012c18;fill-opacity:1;"><g transform="translate(401.864554, 219.484577)"><path style="stroke:none" d="M 0.265625 -18.921875 L 9.453125 -18.921875 L 9.453125 -16.21875 L 6.359375 -16.21875 L 6.359375 0 L 3.375 0 L 3.375 -16.21875 L 0.265625 -16.21875 Z M 0.265625 -18.921875 "/></g></g><g style="fill:#012c18;fill-opacity:1;"><g transform="translate(414.298648, 219.484577)"><path style="stroke:none" d="M 1.078125 -18.921875 L 5.78125 -18.921875 C 7.28125 -18.921875 8.394531 -18.523438 9.125 -17.734375 C 9.851562 -16.941406 10.21875 -15.78125 10.21875 -14.25 L 10.21875 -4.671875 C 10.21875 -3.140625 9.851562 -1.976562 9.125 -1.1875 C 8.394531 -0.394531 7.28125 0 5.78125 0 L 1.078125 0 Z M 4.046875 -16.21875 L 4.046875 -2.703125 L 5.734375 -2.703125 C 6.203125 -2.703125 6.570312 -2.835938 6.84375 -3.109375 C 7.113281 -3.378906 7.25 -3.859375 7.25 -4.546875 L 7.25 -14.375 C 7.25 -15.0625 7.113281 -15.539062 6.84375 -15.8125 C 6.570312 -16.082031 6.203125 -16.21875 5.734375 -16.21875 Z M 4.046875 -16.21875 "/></g></g><g style="fill:#012c18;fill-opacity:1;"><g transform="translate(428.030066, 219.484577)"><path style="stroke:none" d="M 3.8125 -4.359375 C 3.8125 -3.671875 3.953125 -3.1875 4.234375 -2.90625 C 4.515625 -2.625 4.890625 -2.484375 5.359375 -2.484375 C 5.828125 -2.484375 6.195312 -2.625 6.46875 -2.90625 C 6.75 -3.1875 6.890625 -3.671875 6.890625 -4.359375 L 6.890625 -14.5625 C 6.890625 -15.25 6.75 -15.734375 6.46875 -16.015625 C 6.195312 -16.296875 5.828125 -16.4375 5.359375 -16.4375 C 4.890625 -16.4375 4.515625 -16.296875 4.234375 -16.015625 C 3.953125 -15.734375 3.8125 -15.25 3.8125 -14.5625 Z M 0.84375 -14.375 C 0.84375 -15.90625 1.226562 -17.082031 2 -17.90625 C 2.769531 -18.726562 3.890625 -19.140625 5.359375 -19.140625 C 6.816406 -19.140625 7.929688 -18.726562 8.703125 -17.90625 C 9.472656 -17.082031 9.859375 -15.90625 9.859375 -14.375 L 9.859375 -4.546875 C 9.859375 -3.015625 9.472656 -1.835938 8.703125 -1.015625 C 7.929688 -0.191406 6.816406 0.21875 5.359375 0.21875 C 3.890625 0.21875 2.769531 -0.191406 2 -1.015625 C 1.226562 -1.835938 0.84375 -3.015625 0.84375 -4.546875 Z M 0.84375 -14.375 "/></g></g><g style="fill:#012c18;fill-opacity:1;"><g transform="translate(441.437153, 219.484577)"><path style="stroke:none" d="M 3.8125 -4.359375 C 3.8125 -3.671875 3.953125 -3.1875 4.234375 -2.90625 C 4.515625 -2.625 4.890625 -2.484375 5.359375 -2.484375 C 5.828125 -2.484375 6.195312 -2.625 6.46875 -2.90625 C 6.75 -3.1875 6.890625 -3.671875 6.890625 -4.359375 L 6.890625 -14.5625 C 6.890625 -15.25 6.75 -15.734375 6.46875 -16.015625 C 6.195312 -16.296875 5.828125 -16.4375 5.359375 -16.4375 C 4.890625 -16.4375 4.515625 -16.296875 4.234375 -16.015625 C 3.953125 -15.734375 3.8125 -15.25 3.8125 -14.5625 Z M 0.84375 -14.375 C 0.84375 -15.90625 1.226562 -17.082031 2 -17.90625 C 2.769531 -18.726562 3.890625 -19.140625 5.359375 -19.140625 C 6.816406 -19.140625 7.929688 -18.726562 8.703125 -17.90625 C 9.472656 -17.082031 9.859375 -15.90625 9.859375 -14.375 L 9.859375 -4.546875 C 9.859375 -3.015625 9.472656 -1.835938 8.703125 -1.015625 C 7.929688 -0.191406 6.816406 0.21875 5.359375 0.21875 C 3.890625 0.21875 2.769531 -0.191406 2 -1.015625 C 1.226562 -1.835938 0.84375 -3.015625 0.84375 -4.546875 Z M 0.84375 -14.375 "/></g></g><g style="fill:#012c18;fill-opacity:1;"><g transform="translate(454.84424, 219.484577)"><path style="stroke:none" d="M 7.296875 0 C 7.265625 -0.125 7.226562 -0.238281 7.1875 -0.34375 C 7.15625 -0.457031 7.125 -0.59375 7.09375 -0.75 C 7.070312 -0.914062 7.054688 -1.125 7.046875 -1.375 C 7.035156 -1.625 7.03125 -1.941406 7.03125 -2.328125 L 7.03125 -5.296875 C 7.03125 -6.179688 6.875 -6.800781 6.5625 -7.15625 C 6.257812 -7.519531 5.765625 -7.703125 5.078125 -7.703125 L 4.046875 -7.703125 L 4.046875 0 L 1.078125 0 L 1.078125 -18.921875 L 5.5625 -18.921875 C 7.113281 -18.921875 8.234375 -18.5625 8.921875 -17.84375 C 9.617188 -17.125 9.96875 -16.03125 9.96875 -14.5625 L 9.96875 -13.078125 C 9.96875 -11.128906 9.320312 -9.851562 8.03125 -9.25 C 8.78125 -8.9375 9.296875 -8.429688 9.578125 -7.734375 C 9.859375 -7.046875 10 -6.207031 10 -5.21875 L 10 -2.296875 C 10 -1.828125 10.015625 -1.414062 10.046875 -1.0625 C 10.085938 -0.71875 10.179688 -0.363281 10.328125 0 Z M 4.046875 -16.21875 L 4.046875 -10.40625 L 5.21875 -10.40625 C 5.78125 -10.40625 6.21875 -10.546875 6.53125 -10.828125 C 6.84375 -11.117188 7 -11.644531 7 -12.40625 L 7 -14.265625 C 7 -14.953125 6.875 -15.445312 6.625 -15.75 C 6.382812 -16.0625 6.003906 -16.21875 5.484375 -16.21875 Z M 4.046875 -16.21875 "/></g></g><g style="fill:#012c18;fill-opacity:1;"><g transform="translate(468.413492, 219.484577)"><path style="stroke:none" d="M 0.703125 -14.375 C 0.703125 -15.90625 1.066406 -17.082031 1.796875 -17.90625 C 2.523438 -18.726562 3.617188 -19.140625 5.078125 -19.140625 C 6.535156 -19.140625 7.628906 -18.726562 8.359375 -17.90625 C 9.085938 -17.082031 9.453125 -15.90625 9.453125 -14.375 L 9.453125 -13.65625 L 6.65625 -13.65625 L 6.65625 -14.5625 C 6.65625 -15.25 6.519531 -15.734375 6.25 -16.015625 C 5.988281 -16.296875 5.625 -16.4375 5.15625 -16.4375 C 4.6875 -16.4375 4.320312 -16.296875 4.0625 -16.015625 C 3.800781 -15.734375 3.671875 -15.25 3.671875 -14.5625 C 3.671875 -13.914062 3.816406 -13.34375 4.109375 -12.84375 C 4.398438 -12.351562 4.757812 -11.882812 5.1875 -11.4375 C 5.625 -11 6.085938 -10.554688 6.578125 -10.109375 C 7.078125 -9.671875 7.539062 -9.191406 7.96875 -8.671875 C 8.40625 -8.148438 8.765625 -7.554688 9.046875 -6.890625 C 9.335938 -6.222656 9.484375 -5.441406 9.484375 -4.546875 C 9.484375 -3.015625 9.109375 -1.835938 8.359375 -1.015625 C 7.617188 -0.191406 6.519531 0.21875 5.0625 0.21875 C 3.59375 0.21875 2.484375 -0.191406 1.734375 -1.015625 C 0.992188 -1.835938 0.625 -3.015625 0.625 -4.546875 L 0.625 -5.84375 L 3.4375 -5.84375 L 3.4375 -4.359375 C 3.4375 -3.671875 3.570312 -3.191406 3.84375 -2.921875 C 4.125 -2.648438 4.5 -2.515625 4.96875 -2.515625 C 5.4375 -2.515625 5.8125 -2.648438 6.09375 -2.921875 C 6.375 -3.191406 6.515625 -3.671875 6.515625 -4.359375 C 6.515625 -5.003906 6.367188 -5.570312 6.078125 -6.0625 C 5.796875 -6.5625 5.4375 -7.03125 5 -7.46875 C 4.570312 -7.914062 4.109375 -8.359375 3.609375 -8.796875 C 3.109375 -9.234375 2.640625 -9.710938 2.203125 -10.234375 C 1.773438 -10.765625 1.414062 -11.363281 1.125 -12.03125 C 0.84375 -12.695312 0.703125 -13.476562 0.703125 -14.375 Z M 0.703125 -14.375 "/></g></g></g></g></g></g></svg>