<svg xmlns="http://www.w3.org/2000/svg" xmlns:xlink="http://www.w3.org/1999/xlink" width="1002" zoomAndPan="magnify" viewBox="0 0 751.5 243.75" height="325" preserveAspectRatio="xMidYMid meet" version="1.2"><defs><clipPath id="85aee6ef8a"><path d="M 133 19 L 613 19 L 613 243.5 L 133 243.5 Z M 133 19 "/></clipPath><clipPath id="9a081e508e"><path d="M 0.917969 0.421875 L 477 0.421875 L 477 224.5 L 0.917969 224.5 Z M 0.917969 0.421875 "/></clipPath><clipPath id="ad3dcaf6fa"><rect x="0" width="477" y="0" height="225"/></clipPath><clipPath id="9c2a0c78ed"><path d="M 249.074219 5.351562 L 418 5.351562 L 418 224.5 L 249.074219 224.5 Z M 249.074219 5.351562 "/></clipPath><clipPath id="1882e878d9"><path d="M 17.675781 82.136719 L 105.503906 82.136719 L 105.503906 165.574219 L 17.675781 165.574219 Z M 17.675781 82.136719 "/></clipPath><clipPath id="65aa60f483"><path d="M 256 177 L 479.945312 177 L 479.945312 206 L 256 206 Z M 256 177 "/></clipPath><clipPath id="372e190e9f"><rect x="0" width="224" y="0" height="29"/></clipPath><clipPath id="2fcb364697"><rect x="0" width="480" y="0" height="225"/></clipPath></defs><g id="18057875b8"><g clip-rule="nonzero" clip-path="url(#85aee6ef8a)"><g transform="matrix(1,0,0,1,133,19)"><g clip-path="url(#2fcb364697)"><g clip-rule="nonzero" clip-path="url(#9a081e508e)"><g transform="matrix(1,0,0,1,-0.000000000000028422,-0.000000000000046185)"><g id="93868e6d8e" clip-path="url(#ad3dcaf6fa)"><g style="fill:#fff9f3;fill-opacity:1;"><g transform="translate(1.230852, 160.501649)"><path style="stroke:none" d="M 16.203125 -92.34375 L 16.203125 -126.71875 L 48.0625 -126.71875 L 48.0625 -92.34375 L 67.5 -92.34375 L 67.5 -68.046875 L 48.0625 -68.046875 L 48.0625 -38.703125 C 48.0625 -30.179688 50.460938 -25.921875 55.265625 -25.921875 C 56.460938 -25.921875 57.71875 -26.160156 59.03125 -26.640625 C 60.351562 -27.117188 61.375 -27.597656 62.09375 -28.078125 L 63.1875 -28.796875 L 71.09375 -3.0625 C 64.257812 0.78125 56.460938 2.703125 47.703125 2.703125 C 41.703125 2.703125 36.539062 1.65625 32.21875 -0.4375 C 27.894531 -2.539062 24.625 -5.363281 22.40625 -8.90625 C 20.1875 -12.445312 18.597656 -16.164062 17.640625 -20.0625 C 16.679688 -23.96875 16.203125 -28.140625 16.203125 -32.578125 L 16.203125 -68.046875 L 2.875 -68.046875 L 2.875 -92.34375 Z M 16.203125 -92.34375 "/></g></g><g style="fill:#fff9f3;fill-opacity:1;"><g transform="translate(57.023023, 160.501649)"><path style="stroke:none" d="M 10.796875 0 L 10.796875 -92.34375 L 42.65625 -92.34375 L 42.65625 -79.015625 L 43.015625 -79.015625 C 43.253906 -79.492188 43.644531 -80.09375 44.1875 -80.8125 C 44.726562 -81.539062 45.898438 -82.800781 47.703125 -84.59375 C 49.503906 -86.394531 51.421875 -88.015625 53.453125 -89.453125 C 55.492188 -90.898438 58.132812 -92.191406 61.375 -93.328125 C 64.613281 -94.472656 67.914062 -95.046875 71.28125 -95.046875 C 74.757812 -95.046875 78.175781 -94.5625 81.53125 -93.59375 C 84.894531 -92.632812 87.359375 -91.675781 88.921875 -90.71875 L 91.4375 -89.28125 L 78.125 -62.28125 C 74.164062 -65.632812 68.644531 -67.3125 61.5625 -67.3125 C 57.71875 -67.3125 54.414062 -66.472656 51.65625 -64.796875 C 48.894531 -63.117188 46.941406 -61.078125 45.796875 -58.671875 C 44.660156 -56.273438 43.851562 -54.238281 43.375 -52.5625 C 42.894531 -50.882812 42.65625 -49.5625 42.65625 -48.59375 L 42.65625 0 Z M 10.796875 0 "/></g></g><g style="fill:#fff9f3;fill-opacity:1;"><g transform="translate(131.353073, 160.501649)"><path style="stroke:none" d="M 17.09375 -11.421875 C 8.457031 -20.847656 4.140625 -32.398438 4.140625 -46.078125 C 4.140625 -59.753906 8.457031 -71.332031 17.09375 -80.8125 C 25.738281 -90.300781 36.722656 -95.046875 50.046875 -95.046875 C 62.285156 -95.046875 72.363281 -91.203125 80.28125 -83.515625 L 80.28125 -92.34375 L 112.140625 -92.34375 L 112.140625 0 L 80.640625 0 L 80.640625 -10.4375 L 80.28125 -10.4375 C 72.363281 -1.675781 62.285156 2.703125 50.046875 2.703125 C 36.722656 2.703125 25.738281 -2.003906 17.09375 -11.421875 Z M 44.1875 -61.734375 C 40.050781 -57.660156 37.984375 -52.441406 37.984375 -46.078125 C 37.984375 -39.722656 39.960938 -34.535156 43.921875 -30.515625 C 47.878906 -26.492188 53.097656 -24.484375 59.578125 -24.484375 C 65.816406 -24.484375 70.945312 -26.519531 74.96875 -30.59375 C 78.988281 -34.675781 81 -39.835938 81 -46.078125 C 81 -52.441406 78.925781 -57.660156 74.78125 -61.734375 C 70.644531 -65.816406 65.578125 -67.859375 59.578125 -67.859375 C 53.460938 -67.859375 48.332031 -65.816406 44.1875 -61.734375 Z M 44.1875 -61.734375 "/></g></g><g style="fill:#fff9f3;fill-opacity:1;"><g transform="translate(238.979328, 160.501649)"><path style="stroke:none" d="M 34.203125 -92.34375 L 56.703125 -42.125 L 79.203125 -92.34375 L 117 -92.34375 L 67.5 0 L 45.90625 0 L -3.59375 -92.34375 Z M 34.203125 -92.34375 "/></g></g><g style="fill:#fff9f3;fill-opacity:1;"><g transform="translate(337.066673, 160.501649)"><path style="stroke:none" d="M 104.21875 -41.765625 L 37.265625 -41.765625 C 37.265625 -35.285156 39.363281 -30.484375 43.5625 -27.359375 C 47.757812 -24.242188 52.316406 -22.6875 57.234375 -22.6875 C 62.398438 -22.6875 66.484375 -23.375 69.484375 -24.75 C 72.484375 -26.125 75.898438 -28.851562 79.734375 -32.9375 L 102.78125 -21.421875 C 93.175781 -5.335938 77.21875 2.703125 54.90625 2.703125 C 40.976562 2.703125 29.035156 -2.066406 19.078125 -11.609375 C 9.117188 -21.148438 4.140625 -32.640625 4.140625 -46.078125 C 4.140625 -59.515625 9.117188 -71.035156 19.078125 -80.640625 C 29.035156 -90.242188 40.976562 -95.046875 54.90625 -95.046875 C 69.539062 -95.046875 81.445312 -90.8125 90.625 -82.34375 C 99.8125 -73.882812 104.40625 -61.796875 104.40625 -46.078125 C 104.40625 -43.921875 104.34375 -42.484375 104.21875 -41.765625 Z M 38.15625 -59.40625 L 73.265625 -59.40625 C 72.546875 -64.195312 70.65625 -67.882812 67.59375 -70.46875 C 64.53125 -73.050781 60.597656 -74.34375 55.796875 -74.34375 C 50.515625 -74.34375 46.3125 -72.960938 43.1875 -70.203125 C 40.070312 -67.441406 38.394531 -63.84375 38.15625 -59.40625 Z M 38.15625 -59.40625 "/></g></g><g style="fill:#fff9f3;fill-opacity:1;"><g transform="translate(430.294556, 160.501649)"><path style="stroke:none" d="M 10.796875 0 L 10.796875 -154.796875 L 42.65625 -154.796875 L 42.65625 0 Z M 10.796875 0 "/></g></g></g></g></g><g clip-rule="nonzero" clip-path="url(#9c2a0c78ed)"><path style=" stroke:none;fill-rule:nonzero;fill:#012c18;fill-opacity:1;" d="M 404.882812 67.863281 C 410.816406 70.609375 415.277344 74.777344 417.386719 80.074219 C 415.621094 70.414062 406.257812 63.355469 394.34375 60.460938 C 387.234375 58.648438 379.242188 58.109375 371.003906 58.550781 C 368.160156 58.695312 365.269531 58.992188 362.328125 59.382812 C 367.132812 57.273438 373.164062 56.882812 379.242188 58.109375 C 375.125 56.246094 370.613281 55.019531 366.296875 54.726562 C 366.398438 54.675781 366.445312 54.675781 366.542969 54.628906 C 366.9375 54.429688 367.328125 54.234375 367.71875 54.089844 C 367.917969 53.988281 368.160156 53.890625 368.359375 53.84375 C 368.601562 53.792969 368.800781 53.746094 369.042969 53.695312 C 372.917969 52.960938 381.9375 54.824219 381.988281 54.628906 C 382.035156 54.53125 381.988281 54.382812 381.890625 54.285156 C 379.730469 52.125 376.691406 50.460938 373.652344 49.480469 C 377.871094 49.234375 382.28125 50.066406 386.742188 51.390625 C 383.898438 49.96875 380.859375 48.695312 377.722656 47.8125 C 382.332031 47.761719 386.398438 47.863281 391.402344 48.742188 C 388.605469 45.753906 384.339844 44.039062 380.417969 43.253906 C 382.183594 42.417969 384.683594 42.617188 387.722656 43.597656 C 388.605469 43.890625 389.636719 44.183594 390.566406 44.480469 C 391.203125 44.722656 393.949219 45.3125 393.65625 45.117188 C 393.066406 44.722656 391.597656 43.695312 391.058594 43.351562 C 390.175781 42.8125 389.195312 42.222656 388.3125 41.734375 L 387.773438 41.4375 C 392.085938 40.851562 396.792969 41.046875 401.695312 42.125 C 399.148438 40.605469 396.351562 39.332031 393.460938 38.203125 C 398.019531 37.515625 403.019531 38.152344 407.921875 39.917969 C 405.765625 38.496094 403.460938 37.171875 400.960938 36.144531 C 401.011719 36.144531 401.058594 36.144531 401.109375 36.144531 C 401.941406 36.09375 402.824219 36.09375 403.65625 36.046875 C 404.539062 36.046875 405.421875 36.046875 406.304688 36.046875 C 407.1875 36.046875 408.121094 36.09375 409.050781 36.09375 C 408.21875 35.605469 407.335938 35.113281 406.402344 34.671875 C 405.519531 34.28125 404.589844 33.839844 403.65625 33.496094 C 402.726562 33.152344 401.796875 32.808594 400.816406 32.515625 C 382.035156 26.828125 364.679688 33.839844 355.609375 45.703125 C 350.609375 24.867188 338.695312 10.257812 324.574219 5.597656 C 328.300781 8.246094 331.734375 11.433594 334.722656 15.40625 C 334.183594 14.964844 333.546875 14.570312 332.960938 14.179688 C 332.027344 13.589844 331.046875 13.148438 330.066406 12.804688 C 328.449219 12.265625 326.832031 11.972656 325.164062 11.972656 C 325.066406 11.972656 324.96875 12.121094 324.96875 12.265625 C 324.96875 12.414062 327.910156 14.375 329.183594 15.503906 C 329.820312 16.089844 330.460938 16.679688 331.046875 17.367188 L 331.488281 17.855469 L 331.929688 18.347656 C 332.222656 18.691406 332.519531 19.03125 332.761719 19.375 C 333.15625 19.867188 333.546875 20.453125 333.890625 21.042969 C 331.539062 20.355469 329.039062 20.257812 326.488281 21.433594 C 330.3125 23.835938 333.941406 25.847656 337.667969 28.398438 C 334.722656 28.203125 331.636719 29.28125 328.742188 31.042969 C 332.371094 30.605469 335.902344 31.535156 338.695312 34.183594 C 336.6875 34.183594 333.5 34.867188 333.5 35.113281 C 333.5 35.261719 333.644531 35.457031 333.644531 35.457031 C 335.65625 36.4375 337.421875 37.859375 339.1875 39.429688 C 340.410156 40.605469 341.832031 41.734375 342.960938 43.105469 C 342.914062 43.105469 342.914062 43.105469 342.863281 43.105469 C 338.695312 38.890625 333.792969 36.191406 327.46875 33.742188 C 317.90625 29.820312 307.023438 29.230469 297.707031 33.496094 C 296.335938 34.085938 294.960938 34.867188 293.6875 35.703125 C 293.050781 36.09375 292.414062 36.585938 291.824219 37.027344 C 291.628906 37.125 291.578125 37.371094 291.628906 37.613281 C 291.726562 37.859375 299.375 35.652344 302.953125 35.457031 C 300.160156 36.929688 297.660156 39.234375 295.84375 41.878906 C 295.796875 41.976562 295.746094 42.125 295.84375 42.222656 C 295.941406 42.371094 299.964844 40.261719 301.875 39.671875 C 304.082031 38.988281 306.289062 38.644531 308.542969 38.691406 C 306.140625 40.113281 303.835938 42.074219 302.464844 44.625 C 302.414062 44.773438 302.367188 44.917969 302.464844 45.066406 C 302.90625 45.164062 308.640625 42.714844 310.847656 42.8125 C 310.554688 43.15625 310.257812 43.496094 310.015625 43.839844 L 308.984375 45.214844 C 308.542969 45.898438 308.054688 46.683594 307.613281 47.421875 C 307.367188 47.910156 306.679688 49.183594 306.433594 49.675781 C 306.828125 49.285156 307.808594 48.351562 308.199219 47.960938 C 308.789062 47.46875 309.476562 46.929688 310.0625 46.441406 L 311.386719 45.558594 C 314.378906 43.839844 316.976562 43.351562 318.9375 43.398438 C 315.652344 45.214844 312.710938 47.863281 310.40625 50.851562 C 313.398438 48.742188 316.632812 47.273438 320.113281 46.585938 C 318.25 47.910156 315.015625 51.441406 315.0625 51.585938 C 315.210938 51.785156 321.390625 49.382812 323.9375 49.183594 C 321.632812 50.460938 319.527344 52.078125 317.664062 53.84375 C 320.800781 52.078125 324.132812 50.949219 327.515625 50.460938 C 325.898438 51.882812 324.574219 53.695312 323.792969 55.609375 C 323.691406 55.609375 323.644531 55.609375 323.546875 55.65625 C 316.585938 57.324219 309.867188 60.167969 303.933594 64.089844 C 295.402344 69.925781 288.539062 77.914062 283.050781 86.398438 C 282.949219 86.59375 282.949219 86.789062 283.097656 86.984375 C 283.292969 87.183594 285.941406 84.828125 287.070312 83.800781 C 286.578125 84.730469 286.136719 85.664062 285.84375 86.644531 C 285.792969 86.742188 285.941406 86.886719 286.039062 86.789062 C 288.636719 84.582031 290.894531 82.476562 293.199219 80.074219 C 291.875 83.0625 291.089844 86.398438 290.894531 89.585938 C 292.757812 84.632812 295.941406 80.21875 300.308594 77.277344 C 298.984375 80.417969 298.246094 83.996094 298.445312 87.378906 C 298.542969 87.425781 301.335938 83.40625 302.367188 81.738281 C 303.394531 79.925781 305.601562 76.152344 306.632812 74.386719 C 305.40625 77.816406 304.769531 81.640625 305.652344 85.222656 C 305.652344 85.222656 306.632812 80.710938 307.515625 78.652344 C 307.90625 77.621094 308.394531 76.640625 308.984375 75.710938 C 309.523438 74.730469 310.113281 73.847656 310.75 72.964844 C 311.78125 71.492188 313.152344 70.316406 314.328125 68.945312 C 314.328125 68.945312 314.328125 68.945312 314.328125 68.992188 C 311.679688 73.0625 309.867188 77.816406 309.230469 82.523438 C 310.257812 79.976562 311.582031 77.621094 313.152344 75.511719 C 313.101562 77.574219 313.398438 79.535156 313.789062 81.496094 C 313.839844 81.640625 313.886719 81.738281 314.035156 81.789062 C 314.230469 81.886719 316.191406 77.574219 317.171875 75.855469 C 318.105469 74.191406 319.132812 72.667969 320.261719 71.542969 C 319.085938 74.042969 318.789062 76.984375 319.085938 79.679688 C 319.574219 75.414062 321.929688 71.640625 325.605469 69.484375 C 324.476562 72.375 324.085938 75.855469 324.96875 78.75 C 323.253906 80.957031 321.78125 83.359375 320.507812 85.957031 C 320.113281 86.742188 319.769531 87.574219 319.378906 88.40625 C 319.035156 89.242188 318.691406 90.074219 318.398438 90.90625 C 315.945312 97.574219 314.621094 104.980469 314.28125 112.53125 C 314.230469 113.070312 314.230469 113.65625 314.230469 114.195312 C 313.9375 114.441406 313.640625 114.734375 313.347656 114.980469 C 309.964844 118.316406 307.464844 122.824219 306.042969 127.628906 C 306.191406 123.316406 307.90625 119.097656 310.796875 115.816406 C 308.296875 117.433594 306.09375 119.589844 304.523438 122.140625 C 304.523438 122.089844 304.523438 121.992188 304.523438 121.941406 C 304.523438 121.601562 304.523438 121.257812 304.570312 120.914062 C 304.570312 120.71875 304.621094 120.570312 304.621094 120.375 C 304.671875 120.226562 304.71875 120.03125 304.769531 119.882812 C 305.601562 117.089844 309.671875 112.382812 309.574219 112.285156 C 309.523438 112.1875 309.425781 112.1875 309.328125 112.1875 C 307.316406 112.382812 305.257812 113.460938 303.691406 114.832031 C 304.914062 112.039062 306.875 109.734375 309.132812 107.675781 C 307.316406 108.707031 305.554688 109.929688 303.984375 111.402344 C 305.453125 108.460938 306.828125 106.007812 308.984375 103.363281 C 306.238281 103.558594 303.789062 105.324219 302.023438 107.382812 C 302.121094 105.863281 303.003906 104.390625 304.570312 102.96875 C 305.0625 102.578125 305.554688 102.085938 306.042969 101.644531 C 306.386719 101.398438 307.660156 99.976562 307.464844 100.027344 C 307.023438 100.175781 305.945312 100.566406 305.503906 100.714844 C 304.867188 101.007812 304.230469 101.300781 303.640625 101.597656 L 303.296875 101.792969 C 304.328125 98.800781 305.992188 95.957031 308.25 93.410156 C 306.484375 94.242188 304.769531 95.273438 303.152344 96.496094 C 304.179688 93.3125 306.238281 90.515625 308.886719 88.359375 C 307.316406 88.945312 305.75 89.730469 304.328125 90.710938 C 304.328125 90.664062 304.375 90.664062 304.375 90.613281 C 304.621094 90.074219 304.914062 89.535156 305.160156 88.945312 C 305.453125 88.40625 305.75 87.867188 305.992188 87.28125 C 306.289062 86.742188 306.632812 86.203125 306.925781 85.613281 C 306.335938 85.90625 305.75 86.203125 305.210938 86.496094 C 304.671875 86.839844 304.132812 87.183594 303.589844 87.574219 C 303.050781 87.964844 302.5625 88.40625 302.070312 88.800781 C 291.726562 98.261719 290.992188 114.394531 296.679688 126.699219 C 291.433594 123.855469 286.039062 123.023438 279.175781 122.921875 C 269.859375 122.628906 260.25 125.472656 253.386719 131.847656 C 252.355469 132.777344 251.375 133.808594 250.496094 134.886719 C 250.054688 135.425781 249.660156 135.964844 249.21875 136.503906 C 249.074219 136.652344 249.121094 136.898438 249.21875 137.042969 C 249.367188 137.238281 255.398438 133.074219 258.4375 131.796875 C 256.425781 133.855469 254.859375 136.503906 254.023438 139.25 C 253.976562 139.347656 254.023438 139.445312 254.121094 139.542969 C 254.21875 139.640625 257.113281 136.699219 258.632812 135.621094 C 260.347656 134.394531 262.164062 133.414062 264.171875 132.777344 C 262.457031 134.691406 261.035156 136.996094 260.496094 139.445312 C 260.445312 139.542969 260.496094 139.691406 260.59375 139.789062 C 261.035156 139.742188 265.300781 136.015625 267.210938 135.375 C 267.066406 135.71875 266.917969 136.113281 266.773438 136.457031 L 266.28125 137.925781 C 266.085938 138.613281 265.890625 139.398438 265.691406 140.132812 C 265.59375 140.621094 265.398438 141.847656 265.300781 142.339844 C 265.546875 141.898438 266.132812 140.820312 266.378906 140.425781 C 266.773438 139.839844 267.210938 139.199219 267.605469 138.613281 L 268.488281 137.484375 C 270.597656 135.179688 272.753906 133.953125 274.46875 133.414062 C 272.117188 135.917969 270.300781 138.957031 269.125 142.144531 C 271.136719 139.496094 273.539062 137.289062 276.382812 135.71875 C 275.105469 137.335938 273.292969 141.210938 273.390625 141.359375 C 273.585938 141.503906 278.242188 137.632812 280.402344 136.652344 C 278.785156 138.417969 277.363281 140.328125 276.234375 142.386719 C 278.488281 139.984375 281.039062 138.074219 283.832031 136.601562 C 283.832031 136.601562 283.832031 136.601562 283.832031 136.652344 C 282.804688 138.320312 282.167969 140.179688 282.019531 141.996094 C 284.714844 138.21875 289.617188 136.699219 293.980469 137.4375 C 293.441406 137.777344 292.953125 138.171875 292.460938 138.5625 C 287.707031 140.523438 283.539062 143.613281 280.792969 147.878906 C 277.949219 152.535156 275.890625 157.683594 274.960938 163.175781 C 273.683594 171.117188 274.664062 179.503906 276.722656 187.492188 C 276.773438 187.640625 276.921875 187.789062 277.117188 187.789062 C 277.3125 187.789062 277.410156 184.992188 277.410156 183.769531 C 277.65625 184.550781 278 185.335938 278.441406 186.121094 C 278.488281 186.21875 278.636719 186.21875 278.636719 186.070312 C 278.734375 183.375 278.734375 180.925781 278.636719 178.324219 C 279.664062 180.824219 281.234375 183.226562 283.050781 185.238281 C 281.085938 181.265625 280.253906 176.953125 280.941406 172.933594 C 282.066406 175.53125 283.832031 178.082031 285.941406 179.992188 C 286.039062 179.992188 285.15625 176.121094 284.714844 174.550781 C 284.226562 172.933594 283.148438 169.5 282.707031 167.882812 C 284.078125 170.578125 286.039062 173.226562 288.636719 174.894531 C 288.636719 174.894531 286.480469 171.65625 285.746094 169.992188 C 285.351562 169.15625 285.058594 168.324219 284.765625 167.441406 C 284.46875 166.609375 284.273438 165.726562 284.078125 164.84375 C 283.785156 163.421875 283.832031 162 283.6875 160.578125 C 284.617188 164.402344 286.480469 168.226562 288.933594 171.363281 C 287.953125 169.304688 287.3125 167.195312 286.921875 165.085938 C 288.148438 166.363281 289.472656 167.390625 290.84375 168.371094 C 290.941406 168.421875 291.039062 168.472656 291.1875 168.421875 C 291.382812 168.371094 289.863281 164.792969 289.421875 163.226562 C 288.933594 161.703125 288.589844 160.28125 288.539062 159.007812 C 289.375 161.117188 290.992188 163.078125 292.757812 164.5 C 290.5 161.65625 289.519531 158.175781 290.257812 154.9375 C 291.382812 157.292969 293.246094 159.597656 295.453125 160.871094 C 293.835938 158.320312 293.589844 155.429688 294.226562 152.878906 C 295.257812 154.890625 296.628906 156.703125 298.148438 158.222656 C 298.394531 158.46875 298.785156 158.222656 298.640625 157.929688 C 297.804688 155.917969 297.121094 153.910156 296.925781 151.996094 C 297.707031 153.417969 298.640625 154.742188 299.71875 155.917969 C 299.03125 153.273438 298.933594 150.773438 299.472656 148.417969 C 299.816406 149.839844 300.308594 151.210938 300.847656 152.488281 C 301.140625 147.683594 302.710938 143.417969 305.554688 139.9375 C 305.652344 139.839844 305.75 139.742188 305.796875 139.640625 C 318.152344 176.265625 328.644531 206.273438 328.546875 248.484375 C 328.546875 248.484375 330.851562 248.582031 337.519531 248.484375 C 336.882812 206.515625 325.554688 177.835938 308.789062 137.582031 C 308.835938 137.582031 308.835938 137.582031 308.886719 137.632812 C 309.132812 137.730469 309.378906 137.878906 309.621094 138.023438 L 310.359375 138.515625 C 310.796875 138.859375 311.386719 139.347656 311.78125 139.742188 C 311.976562 139.9375 312.269531 140.230469 312.464844 140.425781 C 313.398438 141.359375 314.183594 142.4375 315.0625 143.566406 C 315.164062 143.710938 315.359375 143.613281 315.261719 143.464844 C 314.621094 141.847656 313.789062 140.132812 312.761719 138.660156 C 312.660156 138.5625 312.613281 138.417969 312.515625 138.320312 C 314.867188 139.398438 316.976562 141.160156 318.742188 143.417969 C 318.054688 140.820312 316.878906 138.269531 315.308594 136.015625 C 316.191406 136.554688 317.023438 137.238281 317.859375 138.023438 C 318.105469 138.320312 318.398438 138.5625 318.644531 138.859375 C 318.886719 139.152344 319.132812 139.445312 319.378906 139.789062 C 319.625 140.082031 319.867188 140.425781 320.113281 140.722656 C 320.113281 140.722656 320.847656 141.703125 320.847656 141.703125 C 320.996094 141.898438 321.242188 141.75 321.144531 141.554688 C 320.898438 140.769531 320.652344 139.9375 320.308594 139.152344 C 320.164062 138.757812 319.96875 138.367188 319.769531 137.976562 C 319.574219 137.582031 319.328125 137.191406 319.132812 136.796875 C 319.035156 136.652344 318.9375 136.457031 318.839844 136.308594 C 320.703125 136.75 322.417969 137.632812 323.9375 139.25 C 324.917969 140.28125 325.800781 141.554688 326.488281 142.878906 C 326.242188 142.144531 326.046875 141.40625 325.703125 140.671875 C 324.722656 138.367188 323.152344 136.308594 321.191406 134.835938 C 324.671875 136.898438 327.664062 140.082031 330.019531 143.761719 C 329.578125 141.75 328.9375 139.691406 328.058594 137.730469 C 329.675781 139.347656 331.097656 141.210938 332.46875 143.074219 C 332.664062 143.320312 332.617188 140.722656 332.320312 139.691406 C 333.449219 140.964844 335.851562 144.644531 335.851562 144.300781 C 335.902344 143.320312 335.804688 142.242188 335.605469 141.210938 C 338.058594 142.976562 340.3125 145.035156 342.078125 147.828125 C 341.636719 145.425781 340.65625 142.878906 339.429688 140.621094 C 342.960938 142.632812 345.902344 145.96875 348.058594 149.839844 C 347.472656 147.78125 346.6875 145.722656 345.609375 143.761719 C 347.667969 145.183594 351.933594 148.125 352.523438 148.320312 C 350.460938 181.070312 345.609375 215.882812 340.511719 248.484375 L 352.226562 248.484375 C 356.003906 215.242188 359.582031 181.167969 360.171875 147.488281 C 360.464844 130.671875 359.972656 113.804688 358.699219 97.085938 C 358.109375 89.289062 357.328125 81.542969 356.394531 73.796875 C 358.648438 77.082031 359.628906 81.398438 359.089844 85.269531 C 360.464844 82.179688 361.101562 78.601562 360.613281 75.171875 C 364.140625 78.308594 366.347656 83.40625 365.074219 88.261719 C 366.445312 86.886719 367.523438 85.074219 368.210938 83.015625 C 368.945312 86.347656 369.140625 89.828125 368.75 93.3125 C 369.632812 90.957031 370.269531 88.457031 370.5625 85.90625 C 371.300781 88.359375 371.25 94.832031 371.398438 94.929688 C 371.59375 95.027344 371.839844 94.929688 371.9375 94.734375 C 372.867188 92.820312 373.652344 90.761719 374.09375 88.605469 C 374.730469 92.085938 374.585938 95.566406 373.800781 99.097656 C 375.566406 95.957031 376.789062 92.328125 377.230469 88.703125 C 377.527344 89.191406 377.871094 89.632812 378.164062 90.074219 C 378.457031 92.132812 378.359375 94.242188 378.015625 96.449219 L 377.722656 97.96875 C 377.527344 98.703125 377.28125 99.488281 377.085938 100.222656 C 376.890625 100.714844 376.449219 101.941406 376.25 102.429688 C 376.59375 102.039062 377.476562 100.960938 377.769531 100.566406 C 378.210938 99.929688 378.75 99.242188 379.191406 98.554688 L 380.027344 97.136719 C 380.222656 96.792969 380.417969 96.398438 380.613281 96.054688 C 381.449219 98.066406 381.300781 104.046875 381.398438 104.539062 C 381.546875 104.683594 381.792969 104.636719 381.9375 104.488281 C 383.605469 102.332031 384.4375 99.585938 384.878906 96.839844 C 386.5 100.859375 386.792969 105.175781 386.058594 109.488281 C 386.058594 109.589844 386.105469 109.734375 386.203125 109.785156 C 386.351562 109.882812 388.65625 105.8125 389.195312 103.605469 C 389.390625 102.722656 389.539062 101.839844 389.636719 100.910156 C 390.714844 104.34375 391.351562 112.136719 391.597656 112.1875 C 391.84375 112.234375 392.085938 112.089844 392.136719 111.84375 C 393.605469 106.058594 393.363281 99.734375 391.644531 93.800781 C 389.488281 86.347656 385.078125 79.875 379.734375 74.335938 C 380.417969 72.914062 380.8125 71.394531 380.761719 69.875 C 380.761719 69.875 380.761719 69.824219 380.761719 69.824219 C 382.820312 71.933594 384.390625 74.386719 385.222656 77.179688 C 385.371094 74.191406 384.832031 71.296875 383.65625 68.550781 C 386.5 70.660156 388.019531 73.601562 388.902344 76.789062 C 389.046875 74.335938 388.851562 71.886719 387.921875 69.628906 C 390.863281 72.082031 392.527344 75.367188 393.066406 78.996094 C 394 75.269531 393.851562 71.445312 392.429688 68.207031 C 394.785156 69.972656 396.15625 72.328125 396.746094 75.023438 L 396.992188 76.296875 C 397.039062 76.933594 397.089844 77.621094 397.136719 78.257812 C 397.136719 78.699219 397.039062 79.875 397.039062 80.316406 C 397.285156 79.875 397.824219 78.652344 398.070312 78.210938 C 398.3125 77.523438 398.65625 76.738281 398.902344 76.050781 L 399.292969 74.582031 C 399.492188 73.75 399.636719 72.914062 399.6875 72.082031 C 401.84375 73.992188 403.460938 76.296875 403.707031 79.140625 C 404.492188 76.492188 404.050781 73.847656 403.070312 71.542969 C 407.726562 73.945312 410.765625 77.71875 411.109375 82.425781 C 412.1875 76.59375 409.445312 71.738281 404.882812 67.863281 Z M 349.777344 70.855469 Z M 323.839844 55.65625 C 327.910156 52.566406 333.5 52.8125 337.765625 55.265625 C 337.519531 55.3125 337.273438 55.410156 336.980469 55.460938 C 332.664062 54.726562 328.203125 54.675781 323.839844 55.65625 Z M 331.292969 70.855469 C 331.046875 71.542969 330.851562 72.226562 330.65625 72.964844 C 330.066406 73.453125 329.480469 73.945312 328.890625 74.484375 C 327.515625 75.757812 326.242188 77.179688 325.015625 78.699219 C 325.898438 75.171875 328.351562 72.523438 331.292969 70.855469 Z M 325.898438 96.644531 C 326.242188 99.539062 326.878906 102.527344 327.910156 105.125 C 326.488281 105.714844 325.113281 106.402344 323.742188 107.1875 C 323.890625 103.410156 324.527344 99.78125 325.898438 96.644531 Z M 322.320312 103.753906 C 322.46875 105.027344 322.664062 106.351562 322.957031 107.625 C 322.074219 108.167969 321.191406 108.707031 320.359375 109.292969 C 321.046875 107.382812 321.832031 105.175781 322.320312 103.753906 Z M 316.289062 112.429688 C 316.925781 110.46875 317.613281 108.558594 318.300781 106.644531 C 318.347656 107.96875 318.496094 109.292969 318.644531 110.570312 C 317.808594 111.15625 317.023438 111.746094 316.289062 112.429688 Z M 352.472656 147.488281 C 352.472656 147.828125 352.421875 148.171875 352.421875 148.46875 C 351.6875 146.898438 350.855469 145.425781 349.972656 143.957031 C 350.855469 144.546875 351.738281 145.183594 352.570312 145.769531 C 352.523438 146.359375 352.523438 146.898438 352.472656 147.488281 Z M 352.71875 142.339844 C 349.53125 138.757812 345.953125 135.621094 342.128906 133.023438 C 341.492188 132.582031 340.804688 132.191406 340.167969 131.75 C 339.480469 131.355469 338.792969 130.964844 338.15625 130.621094 C 334.332031 128.609375 330.214844 127.285156 326.195312 126.847656 C 323.742188 126.550781 321.339844 126.601562 318.988281 126.945312 C 318.742188 126.992188 318.496094 127.042969 318.25 127.089844 C 320.949219 125.523438 324.28125 124.984375 327.273438 126.109375 C 326.242188 124.738281 324.773438 123.660156 323.105469 122.875 C 325.996094 122.53125 328.9375 122.628906 331.882812 123.316406 C 329.96875 122.335938 327.910156 121.550781 325.753906 121.058594 C 327.910156 120.667969 333.351562 121.257812 333.5 121.109375 C 333.597656 120.960938 333.546875 120.71875 333.402344 120.621094 C 331.882812 119.589844 330.164062 118.757812 328.351562 118.167969 C 331.339844 117.921875 334.285156 118.363281 337.175781 119.34375 C 334.675781 117.480469 331.683594 116.058594 328.644531 115.375 C 329.085938 115.175781 329.480469 114.882812 329.917969 114.6875 C 331.683594 114.589844 333.5 114.882812 335.3125 115.375 L 336.585938 115.765625 C 337.175781 116.011719 337.863281 116.304688 338.449219 116.550781 C 338.84375 116.746094 339.871094 117.285156 340.265625 117.480469 C 339.921875 117.136719 339.136719 116.253906 338.84375 115.960938 C 338.351562 115.519531 337.8125 114.980469 337.273438 114.539062 L 336.144531 113.65625 C 335.851562 113.460938 335.558594 113.265625 335.265625 113.070312 C 337.027344 112.53125 342.078125 113.167969 342.519531 113.117188 C 342.667969 112.972656 342.617188 112.773438 342.519531 112.628906 C 340.851562 110.960938 338.546875 109.929688 336.292969 109.34375 C 339.824219 108.265625 343.5 108.410156 347.128906 109.441406 C 347.226562 109.441406 347.324219 109.441406 347.375 109.34375 C 347.472656 109.246094 344.234375 106.84375 342.421875 106.15625 C 341.6875 105.910156 340.949219 105.664062 340.167969 105.519531 C 343.15625 104.882812 349.824219 104.980469 349.875 104.78125 C 349.972656 104.585938 349.824219 104.34375 349.628906 104.242188 C 344.875 102.429688 339.480469 102.085938 334.285156 103.066406 C 332.175781 103.460938 330.117188 104.097656 328.105469 104.929688 C 328.007812 101.203125 328.695312 97.820312 329.722656 94.632812 C 330.214844 95.8125 330.753906 96.890625 331.441406 97.820312 C 331.636719 98.164062 331.488281 93.066406 331.734375 91.054688 C 332.125 92.28125 333.695312 94.832031 333.695312 94.488281 C 333.792969 91.789062 333.84375 88.996094 334.285156 86.398438 C 334.722656 88.847656 335.460938 91.347656 336.292969 93.554688 C 336.046875 88.40625 336.785156 83.359375 338.597656 79.09375 C 337.765625 81.789062 337.617188 84.828125 338.207031 87.722656 C 338.351562 88.605469 338.648438 89.488281 338.890625 90.367188 C 338.695312 88.554688 338.648438 86.789062 338.941406 85.121094 C 339.285156 82.574219 340.3125 80.5625 341.6875 78.945312 C 341.6875 79.191406 341.6875 79.386719 341.734375 79.632812 C 341.785156 80.171875 341.832031 80.660156 341.882812 81.152344 C 341.980469 81.640625 342.078125 82.179688 342.175781 82.671875 C 342.371094 83.652344 342.667969 84.632812 342.914062 85.5625 C 342.960938 85.808594 343.304688 85.808594 343.304688 85.515625 C 343.304688 85.464844 343.355469 84.09375 343.355469 84.042969 C 343.355469 83.554688 343.355469 83.113281 343.402344 82.621094 C 343.453125 82.179688 343.453125 81.691406 343.5 81.25 C 343.550781 80.808594 343.648438 80.367188 343.695312 79.925781 C 343.941406 78.601562 344.234375 77.375 344.675781 76.296875 C 344.628906 79.535156 345.214844 82.769531 346.195312 85.761719 C 346.394531 82.425781 347.179688 79.335938 348.597656 76.738281 C 348.597656 76.886719 348.597656 77.082031 348.597656 77.230469 C 348.550781 79.335938 348.894531 81.496094 349.335938 83.554688 C 349.382812 83.75 349.582031 83.75 349.582031 83.503906 C 349.628906 81.886719 349.679688 80.269531 349.921875 78.75 C 349.972656 78.40625 350.019531 77.964844 350.121094 77.621094 C 350.21875 76.984375 350.460938 76.152344 350.660156 75.511719 L 351 74.53125 C 351.148438 74.238281 351.296875 73.945312 351.441406 73.648438 C 351.542969 73.503906 351.640625 73.355469 351.738281 73.210938 C 352.375 81.296875 352.863281 89.4375 353.109375 97.527344 C 353.648438 112.578125 353.503906 127.484375 352.71875 142.339844 Z M 375.859375 71.050781 C 375.074219 70.367188 374.191406 69.726562 373.308594 69.089844 C 375.710938 70.070312 377.574219 71.589844 378.457031 73.550781 C 377.625 72.667969 376.742188 71.835938 375.859375 71.050781 Z M 375.859375 71.050781 "/></g><path style="fill:none;stroke-width:5;stroke-linecap:butt;stroke-linejoin:miter;stroke:#fff9f3;stroke-opacity:1;stroke-miterlimit:4;" d="M -0.000721397 2.500242 L 8.375047 2.500242 " transform="matrix(0.00000000383221,2.195694,-2.195694,0.00000000383221,250.083516,179.423459)"/><path style="fill:none;stroke-width:4;stroke-linecap:butt;stroke-linejoin:miter;stroke:#fff9f3;stroke-opacity:1;stroke-miterlimit:4;" d="M -0.000721396 1.999194 L 8.375047 1.999194 " transform="matrix(0.00000000383221,2.195694,-2.195694,0.00000000383221,234.909149,179.423459)"/><path style="fill:none;stroke-width:3;stroke-linecap:butt;stroke-linejoin:miter;stroke:#fff9f3;stroke-opacity:1;stroke-miterlimit:4;" d="M -0.000721393 1.500319 L 8.375047 1.500319 " transform="matrix(0,2.195694,-2.195694,0,221.177054,179.423459)"/><path style="fill:none;stroke-width:3;stroke-linecap:butt;stroke-linejoin:miter;stroke:#fff9f3;stroke-opacity:1;stroke-miterlimit:4;" d="M -0.000721395 1.500049 L 8.375047 1.500049 " transform="matrix(0.00000000383221,2.195694,-2.195694,0.00000000383221,209.985055,179.423459)"/><path style="fill:none;stroke-width:2;stroke-linecap:butt;stroke-linejoin:miter;stroke:#fff9f3;stroke-opacity:1;stroke-miterlimit:4;" d="M -0.000721395 1.000196 L 8.375047 1.000196 " transform="matrix(0.00000000383221,2.195694,-2.195694,0.00000000383221,199.13753,179.423459)"/><path style="fill:none;stroke-width:1;stroke-linecap:butt;stroke-linejoin:miter;stroke:#fff9f3;stroke-opacity:1;stroke-miterlimit:4;" d="M -0.000721394 0.500695 L 8.375047 0.500695 " transform="matrix(0.00000000383221,2.195694,-2.195694,0.00000000383221,189.732185,179.423459)"/><g clip-rule="nonzero" clip-path="url(#1882e878d9)"><path style=" stroke:none;fill-rule:nonzero;fill:#012c18;fill-opacity:1;" d="M 104.152344 135.378906 C 103.570312 135.289062 102.082031 135.417969 102.148438 136.027344 C 102.214844 136.628906 102.363281 137.300781 102.1875 137.578125 C 102.015625 137.859375 101.324219 139 101.324219 139 C 101.324219 139 100.65625 138.484375 99.964844 138.332031 C 99.277344 138.179688 97.378906 138.03125 97.03125 137.835938 C 96.6875 137.640625 93.648438 135.429688 93.03125 134.914062 C 92.414062 134.398438 90.507812 133.105469 89.699219 132.261719 C 88.890625 131.421875 88.4375 131.644531 88.4375 130.546875 C 88.4375 129.445312 87.984375 128.929688 87.179688 128.152344 C 86.367188 127.375 85.917969 126.570312 85.757812 125.109375 C 85.59375 123.65625 84.464844 118.703125 84.007812 117.738281 C 83.554688 116.769531 82.941406 114.085938 82.875 113.015625 C 82.808594 111.949219 83.265625 111.460938 83.164062 110.296875 C 83.070312 109.132812 82.972656 108.90625 83.648438 108.519531 C 84.328125 108.132812 85.136719 107.226562 85.136719 106.871094 C 85.136719 106.515625 82.90625 106.484375 82.515625 106.195312 C 82.128906 105.90625 81.933594 105.355469 81.578125 104.933594 C 81.222656 104.511719 80.996094 103.867188 80.996094 103.867188 L 81.382812 103.480469 C 81.382812 103.480469 82.96875 104.222656 84.003906 103.960938 C 85.042969 103.703125 85.460938 100.824219 85.753906 100.113281 C 86.042969 99.402344 87.113281 97.816406 87.207031 97.042969 C 87.300781 96.265625 87.367188 95.554688 87.367188 95.554688 C 87.367188 95.554688 90.539062 94.070312 91.542969 92.839844 C 92.546875 91.613281 93.160156 87.246094 92.742188 86.726562 C 92.320312 86.210938 87.957031 86.566406 87.566406 86.535156 C 87.179688 86.5 84.335938 82.351562 82.429688 82.257812 C 80.519531 82.160156 77.417969 82.484375 75.539062 83.355469 C 73.664062 84.226562 72.082031 86.332031 71.789062 87.625 C 71.5 88.917969 72.144531 92.25 71.914062 92.898438 C 71.6875 93.546875 68.128906 95.226562 67.773438 95.484375 C 67.417969 95.746094 67.679688 96.324219 67.679688 96.324219 C 67.679688 96.324219 63.054688 95.03125 61.632812 95.226562 C 60.210938 95.421875 58.140625 95.773438 57.332031 96.78125 C 56.519531 97.785156 53.707031 101.015625 53.027344 102.246094 C 52.351562 103.476562 51.574219 104.902344 51.058594 105.027344 C 50.539062 105.15625 46.6875 105.546875 46.304688 105.867188 C 45.914062 106.191406 43.78125 110.621094 42.746094 114.441406 C 41.710938 118.253906 40.933594 126.410156 41.257812 127.832031 C 41.578125 129.253906 41.90625 132.292969 41.773438 133.910156 C 41.644531 135.527344 43.195312 137.855469 43.328125 138.761719 C 43.460938 139.667969 44.976562 142.578125 44.75 142.964844 C 44.523438 143.355469 43.421875 144.128906 44.039062 144.96875 C 44.65625 145.808594 46.886719 146.746094 46.886719 146.746094 C 46.886719 146.746094 46.820312 151.40625 47.148438 152.890625 C 47.472656 154.378906 48.667969 154.734375 48.667969 154.734375 L 49.671875 153.992188 C 49.671875 153.992188 48.34375 153.152344 48.472656 151.304688 C 48.601562 149.460938 48.636719 147.035156 48.636719 147.035156 L 49.929688 147.070312 C 49.929688 147.070312 50.933594 148.878906 52.644531 149.625 L 53.453125 148.8125 C 53.453125 148.8125 52.226562 148.035156 51.738281 146.96875 C 51.738281 146.96875 53.710938 147.550781 54.808594 147.519531 C 55.910156 147.488281 57.203125 146.96875 57.203125 146.96875 C 57.203125 146.96875 57.558594 150.785156 57.753906 151.207031 C 57.945312 151.628906 58.625 151.628906 58.625 151.820312 C 58.625 152.015625 59.722656 157.578125 61.050781 159.488281 C 62.375 161.398438 63.570312 161.980469 63.570312 161.980469 C 63.570312 161.980469 63.433594 163.40625 63.414062 164.9375 L 24.5625 198.609375 C 23.960938 198.019531 23.414062 197.664062 23.273438 197.796875 C 23.132812 197.925781 23.433594 198.492188 23.960938 199.132812 L 17.777344 204.496094 C 17.777344 204.496094 17.695312 204.847656 17.851562 205.042969 C 18.011719 205.230469 18.234375 205.183594 18.234375 205.183594 L 24.570312 199.804688 C 25.167969 200.398438 25.714844 200.75 25.859375 200.621094 C 26 200.492188 25.707031 199.929688 25.175781 199.289062 L 63.46875 166.78125 C 63.523438 167.410156 63.617188 167.949219 63.78125 168.277344 C 64.460938 169.640625 64.847656 171.675781 64.753906 172.453125 C 64.660156 173.230469 64.464844 174.054688 64.464844 174.492188 C 64.464844 174.929688 64.609375 175.851562 63.832031 176.433594 C 63.054688 177.015625 62.039062 178.808594 60.773438 179.492188 C 59.511719 180.167969 54.5625 182.59375 51.601562 184.394531 C 48.644531 186.1875 44.035156 189.828125 42.964844 191.039062 C 41.898438 192.25 40.25 193.609375 39.957031 193.609375 C 39.664062 193.609375 37.402344 193.480469 36.320312 193.753906 C 35.234375 194.027344 34.167969 194.53125 34.085938 194.53125 C 34.003906 194.53125 33.019531 194.335938 32.210938 194.675781 C 31.402344 195.015625 32.695312 201.195312 33.066406 201.855469 C 33.4375 202.515625 34.214844 203.019531 34.265625 203.941406 C 34.3125 204.863281 34.925781 209.4375 35.6875 211.382812 C 36.445312 213.324219 38.984375 216.476562 39.746094 216.765625 C 40.503906 217.054688 41.394531 216.183594 41.394531 216.183594 C 41.394531 216.183594 42.054688 215.71875 41.894531 214.710938 C 41.734375 213.707031 41.214844 211.347656 41.441406 210.410156 C 41.664062 209.472656 42.960938 208.246094 43.054688 206.917969 C 43.152344 205.589844 43.34375 203.78125 43.605469 203.554688 C 43.867188 203.328125 46.386719 202.261719 46.582031 201.742188 C 46.773438 201.226562 48.230469 201.453125 48.390625 200.675781 C 48.550781 199.898438 50.558594 198.378906 51.753906 197.414062 C 52.953125 196.441406 57.445312 192.914062 59.160156 191.847656 C 60.875 190.78125 62.847656 190.425781 63.464844 190.167969 C 64.078125 189.90625 64.691406 188.839844 65.144531 188.613281 C 65.601562 188.386719 67.570312 187.578125 68.511719 187.191406 C 69.449219 186.804688 71.097656 186.285156 71.746094 185.832031 C 72.394531 185.378906 73.265625 183.988281 73.265625 183.988281 C 73.265625 183.988281 73.589844 190.296875 73.363281 191.523438 C 73.136719 192.75 72.941406 198.347656 72.941406 200.644531 C 72.941406 202.941406 73.007812 207.5 73.199219 207.855469 C 73.394531 208.210938 74.527344 208.472656 74.367188 208.859375 C 74.207031 209.25 73.300781 210.136719 73.429688 210.847656 C 73.554688 211.558594 74.367188 213.207031 74.316406 214.390625 C 74.265625 215.570312 74.089844 216.660156 74.707031 216.828125 C 75.320312 216.992188 77.402344 217.222656 79.800781 217.1875 C 82.195312 217.15625 82.082031 216.394531 82.550781 216.25 C 83.015625 216.105469 85.070312 216.136719 86.269531 216.527344 C 87.46875 216.914062 90.054688 217.203125 92.109375 217.058594 C 94.164062 216.914062 96.3125 216.558594 96.832031 216.203125 C 97.347656 215.847656 96.542969 214.8125 96.542969 214.8125 C 96.542969 214.8125 95.960938 213.113281 94.457031 212.886719 C 92.953125 212.660156 91.398438 212.464844 90.363281 211.898438 C 89.332031 211.332031 88.585938 210.265625 87.761719 209.761719 C 87.332031 209.5 86.679688 209.039062 86.121094 208.554688 L 87.273438 203.929688 C 88.109375 204.0625 88.757812 204.03125 88.792969 203.84375 C 88.835938 203.65625 88.265625 203.371094 87.464844 203.15625 L 101.445312 147.164062 C 102.085938 147.253906 102.839844 147.125 102.960938 147.003906 C 103.144531 146.820312 103.285156 146.378906 103.285156 146.378906 C 103.285156 146.378906 104.148438 146.144531 104.429688 145.863281 C 104.710938 145.582031 104.535156 145.042969 104.535156 145.042969 C 104.535156 145.042969 105.207031 144.761719 105.246094 144.226562 C 105.289062 143.6875 104.945312 143.273438 104.945312 143.273438 C 104.945312 143.273438 105.636719 142.671875 105.59375 142.089844 C 105.554688 141.507812 104.667969 140.492188 104.320312 140.257812 C 103.980469 140.023438 104.28125 138.574219 104.582031 138.273438 C 104.882812 137.972656 106.265625 137.585938 106.304688 137.046875 C 106.347656 136.507812 104.730469 135.472656 104.148438 135.386719 Z M 86.582031 202.964844 C 85.753906 202.835938 85.105469 202.867188 85.0625 203.054688 C 85.019531 203.238281 85.589844 203.523438 86.398438 203.738281 L 85.414062 207.863281 C 85.234375 207.660156 85.105469 207.472656 85.050781 207.308594 C 84.816406 206.621094 84.941406 206.253906 84.554688 205.949219 C 84.164062 205.648438 83.648438 205.300781 83.648438 205.300781 C 83.648438 205.300781 84.425781 203.277344 84.339844 202.648438 C 84.253906 202.023438 83.5 199.265625 83.433594 198.507812 C 83.367188 197.75 84.746094 193.207031 84.355469 191.511719 C 83.96875 189.8125 83.628906 188.066406 83.773438 187.046875 C 83.917969 186.027344 86.25 183.3125 86.25 180.882812 C 86.25 178.457031 84.84375 174.628906 84.597656 173.121094 C 84.355469 171.617188 84.210938 167.6875 83.773438 165.894531 C 83.335938 164.101562 82.367188 162.742188 81.980469 160.796875 C 81.589844 158.855469 80.667969 157.839844 80.769531 157.011719 C 80.863281 156.1875 81.105469 155.21875 81.402344 154.492188 C 81.691406 153.765625 81.582031 152.425781 81.582031 152.425781 C 81.582031 152.425781 82.253906 152.339844 82.554688 152.230469 C 82.855469 152.125 83.007812 151.628906 83.007812 151.628906 C 83.007812 151.628906 83.871094 152.058594 84.234375 151.929688 C 84.605469 151.800781 84.90625 151.023438 84.90625 151.023438 C 84.90625 151.023438 85.875 151.042969 86.242188 150.679688 C 86.609375 150.3125 86.648438 149.515625 86.648438 149.515625 C 86.648438 149.515625 87.902344 149.171875 88.097656 148.804688 C 88.289062 148.4375 87.652344 146.980469 87.835938 146.800781 C 88.015625 146.617188 89.476562 146.519531 90.25 146.410156 C 91.027344 146.304688 89.519531 144.386719 88.78125 143.777344 C 88.050781 143.175781 87.53125 142.960938 87.226562 143.175781 C 86.925781 143.390625 86.839844 143.800781 86.558594 143.953125 C 86.277344 144.105469 85.910156 144.234375 85.910156 144.234375 C 85.910156 144.234375 85.179688 143.222656 84.355469 142.851562 C 83.539062 142.484375 81.855469 142.660156 81.855469 142.660156 C 81.855469 142.660156 80.949219 141.648438 80.796875 141.238281 C 80.644531 140.828125 81.292969 137.765625 81.292969 137.765625 C 81.292969 137.765625 85.300781 140.460938 86.902344 141.925781 C 88.496094 143.394531 91.988281 144.386719 93.007812 144.621094 C 94.023438 144.859375 95.574219 145.097656 95.980469 145.011719 C 96.390625 144.925781 96.5625 144.515625 96.5625 144.515625 C 96.5625 144.515625 97.1875 144.535156 97.597656 144.882812 C 97.910156 145.148438 99.242188 145.84375 100.085938 146.398438 L 86.582031 202.960938 Z M 86.582031 202.964844 "/></g><g clip-rule="nonzero" clip-path="url(#65aa60f483)"><g transform="matrix(1,0,0,1,256,177)"><g id="6e664b4a3d" clip-path="url(#372e190e9f)"><g style="fill:#ffaa1c;fill-opacity:1;"><g transform="translate(1.177157, 21.051625)"><path style="stroke:none" d="M 0.265625 -18.640625 L 9.3125 -18.640625 L 9.3125 -15.96875 L 6.25 -15.96875 L 6.25 0 L 3.328125 0 L 3.328125 -15.96875 L 0.265625 -15.96875 Z M 0.265625 -18.640625 "/></g></g><g style="fill:#ffaa1c;fill-opacity:1;"><g transform="translate(13.426703, 21.051625)"><path style="stroke:none" d="M 4 0 L 1.0625 0 L 1.0625 -18.640625 L 4 -18.640625 L 4 -10.65625 L 7.328125 -10.65625 L 7.328125 -18.640625 L 10.296875 -18.640625 L 10.296875 0 L 7.328125 0 L 7.328125 -7.984375 L 4 -7.984375 Z M 4 0 "/></g></g><g style="fill:#ffaa1c;fill-opacity:1;"><g transform="translate(27.460207, 21.051625)"><path style="stroke:none" d="M 4 -10.78125 L 8.015625 -10.78125 L 8.015625 -8.125 L 4 -8.125 L 4 -2.65625 L 9.046875 -2.65625 L 9.046875 0 L 1.0625 0 L 1.0625 -18.640625 L 9.046875 -18.640625 L 9.046875 -15.96875 L 4 -15.96875 Z M 4 -10.78125 "/></g></g><g style="fill:#ffaa1c;fill-opacity:1;"><g transform="translate(39.92278, 21.051625)"><path style="stroke:none" d=""/></g></g><g style="fill:#ffaa1c;fill-opacity:1;"><g transform="translate(46.713962, 21.051625)"><path style="stroke:none" d="M 5.453125 -10.390625 L 9.5625 -10.390625 L 9.5625 -4.46875 C 9.5625 -2.957031 9.191406 -1.796875 8.453125 -0.984375 C 7.710938 -0.179688 6.625 0.21875 5.1875 0.21875 C 3.75 0.21875 2.660156 -0.179688 1.921875 -0.984375 C 1.191406 -1.796875 0.828125 -2.957031 0.828125 -4.46875 L 0.828125 -14.171875 C 0.828125 -15.671875 1.191406 -16.820312 1.921875 -17.625 C 2.660156 -18.4375 3.75 -18.84375 5.1875 -18.84375 C 6.625 -18.84375 7.710938 -18.4375 8.453125 -17.625 C 9.191406 -16.820312 9.5625 -15.671875 9.5625 -14.171875 L 9.5625 -12.359375 L 6.796875 -12.359375 L 6.796875 -14.34375 C 6.796875 -15.019531 6.65625 -15.492188 6.375 -15.765625 C 6.101562 -16.046875 5.734375 -16.1875 5.265625 -16.1875 C 4.804688 -16.1875 4.4375 -16.046875 4.15625 -15.765625 C 3.882812 -15.492188 3.75 -15.019531 3.75 -14.34375 L 3.75 -4.28125 C 3.75 -3.613281 3.882812 -3.144531 4.15625 -2.875 C 4.4375 -2.601562 4.804688 -2.46875 5.265625 -2.46875 C 5.734375 -2.46875 6.101562 -2.601562 6.375 -2.875 C 6.65625 -3.144531 6.796875 -3.613281 6.796875 -4.28125 L 6.796875 -7.71875 L 5.453125 -7.71875 Z M 5.453125 -10.390625 "/></g></g><g style="fill:#ffaa1c;fill-opacity:1;"><g transform="translate(59.762302, 21.051625)"><path style="stroke:none" d="M 7.1875 0 C 7.15625 -0.125 7.117188 -0.238281 7.078125 -0.34375 C 7.046875 -0.445312 7.015625 -0.578125 6.984375 -0.734375 C 6.960938 -0.898438 6.945312 -1.109375 6.9375 -1.359375 C 6.925781 -1.609375 6.921875 -1.921875 6.921875 -2.296875 L 6.921875 -5.21875 C 6.921875 -6.082031 6.769531 -6.691406 6.46875 -7.046875 C 6.164062 -7.410156 5.675781 -7.59375 5 -7.59375 L 4 -7.59375 L 4 0 L 1.0625 0 L 1.0625 -18.640625 L 5.484375 -18.640625 C 7.015625 -18.640625 8.117188 -18.28125 8.796875 -17.5625 C 9.484375 -16.851562 9.828125 -15.78125 9.828125 -14.34375 L 9.828125 -12.890625 C 9.828125 -10.972656 9.1875 -9.710938 7.90625 -9.109375 C 8.65625 -8.804688 9.164062 -8.3125 9.4375 -7.625 C 9.707031 -6.945312 9.84375 -6.117188 9.84375 -5.140625 L 9.84375 -2.265625 C 9.84375 -1.804688 9.859375 -1.398438 9.890625 -1.046875 C 9.929688 -0.703125 10.023438 -0.351562 10.171875 0 Z M 4 -15.96875 L 4 -10.25 L 5.140625 -10.25 C 5.691406 -10.25 6.117188 -10.390625 6.421875 -10.671875 C 6.734375 -10.960938 6.890625 -11.476562 6.890625 -12.21875 L 6.890625 -14.0625 C 6.890625 -14.726562 6.769531 -15.210938 6.53125 -15.515625 C 6.289062 -15.816406 5.914062 -15.96875 5.40625 -15.96875 Z M 4 -15.96875 "/></g></g><g style="fill:#ffaa1c;fill-opacity:1;"><g transform="translate(73.13016, 21.051625)"><path style="stroke:none" d="M 4 -10.78125 L 8.015625 -10.78125 L 8.015625 -8.125 L 4 -8.125 L 4 -2.65625 L 9.046875 -2.65625 L 9.046875 0 L 1.0625 0 L 1.0625 -18.640625 L 9.046875 -18.640625 L 9.046875 -15.96875 L 4 -15.96875 Z M 4 -10.78125 "/></g></g><g style="fill:#ffaa1c;fill-opacity:1;"><g transform="translate(85.592733, 21.051625)"><path style="stroke:none" d="M 10.546875 0 L 7.59375 0 L 7.078125 -3.375 L 3.484375 -3.375 L 2.984375 0 L 0.296875 0 L 3.28125 -18.640625 L 7.5625 -18.640625 Z M 3.859375 -5.90625 L 6.6875 -5.90625 L 5.265625 -15.34375 Z M 3.859375 -5.90625 "/></g></g><g style="fill:#ffaa1c;fill-opacity:1;"><g transform="translate(99.093715, 21.051625)"><path style="stroke:none" d="M 0.265625 -18.640625 L 9.3125 -18.640625 L 9.3125 -15.96875 L 6.25 -15.96875 L 6.25 0 L 3.328125 0 L 3.328125 -15.96875 L 0.265625 -15.96875 Z M 0.265625 -18.640625 "/></g></g><g style="fill:#ffaa1c;fill-opacity:1;"><g transform="translate(111.343262, 21.051625)"><path style="stroke:none" d=""/></g></g><g style="fill:#ffaa1c;fill-opacity:1;"><g transform="translate(118.134444, 21.051625)"><path style="stroke:none" d="M 3.75 -4.28125 C 3.75 -3.613281 3.882812 -3.140625 4.15625 -2.859375 C 4.4375 -2.585938 4.804688 -2.453125 5.265625 -2.453125 C 5.734375 -2.453125 6.101562 -2.585938 6.375 -2.859375 C 6.65625 -3.140625 6.796875 -3.613281 6.796875 -4.28125 L 6.796875 -14.34375 C 6.796875 -15.019531 6.65625 -15.492188 6.375 -15.765625 C 6.101562 -16.046875 5.734375 -16.1875 5.265625 -16.1875 C 4.804688 -16.1875 4.4375 -16.046875 4.15625 -15.765625 C 3.882812 -15.492188 3.75 -15.019531 3.75 -14.34375 Z M 0.828125 -14.171875 C 0.828125 -15.671875 1.207031 -16.820312 1.96875 -17.625 C 2.726562 -18.4375 3.828125 -18.84375 5.265625 -18.84375 C 6.703125 -18.84375 7.800781 -18.4375 8.5625 -17.625 C 9.332031 -16.820312 9.71875 -15.671875 9.71875 -14.171875 L 9.71875 -4.46875 C 9.71875 -2.957031 9.332031 -1.796875 8.5625 -0.984375 C 7.800781 -0.179688 6.703125 0.21875 5.265625 0.21875 C 3.828125 0.21875 2.726562 -0.179688 1.96875 -0.984375 C 1.207031 -1.796875 0.828125 -2.957031 0.828125 -4.46875 Z M 0.828125 -14.171875 "/></g></g><g style="fill:#ffaa1c;fill-opacity:1;"><g transform="translate(131.342543, 21.051625)"><path style="stroke:none" d="M 3.859375 -18.640625 L 3.859375 -4.265625 C 3.859375 -3.585938 3.992188 -3.113281 4.265625 -2.84375 C 4.546875 -2.582031 4.914062 -2.453125 5.375 -2.453125 C 5.84375 -2.453125 6.210938 -2.582031 6.484375 -2.84375 C 6.753906 -3.113281 6.890625 -3.585938 6.890625 -4.265625 L 6.890625 -18.640625 L 9.671875 -18.640625 L 9.671875 -4.453125 C 9.671875 -2.941406 9.300781 -1.78125 8.5625 -0.96875 C 7.820312 -0.164062 6.734375 0.234375 5.296875 0.234375 C 3.859375 0.234375 2.769531 -0.164062 2.03125 -0.96875 C 1.300781 -1.78125 0.9375 -2.941406 0.9375 -4.453125 L 0.9375 -18.640625 Z M 3.859375 -18.640625 "/></g></g><g style="fill:#ffaa1c;fill-opacity:1;"><g transform="translate(144.603887, 21.051625)"><path style="stroke:none" d="M 0.265625 -18.640625 L 9.3125 -18.640625 L 9.3125 -15.96875 L 6.25 -15.96875 L 6.25 0 L 3.328125 0 L 3.328125 -15.96875 L 0.265625 -15.96875 Z M 0.265625 -18.640625 "/></g></g><g style="fill:#ffaa1c;fill-opacity:1;"><g transform="translate(156.853434, 21.051625)"><path style="stroke:none" d="M 1.0625 -18.640625 L 5.703125 -18.640625 C 7.171875 -18.640625 8.265625 -18.25 8.984375 -17.46875 C 9.703125 -16.6875 10.0625 -15.539062 10.0625 -14.03125 L 10.0625 -4.609375 C 10.0625 -3.097656 9.703125 -1.953125 8.984375 -1.171875 C 8.265625 -0.390625 7.171875 0 5.703125 0 L 1.0625 0 Z M 4 -15.96875 L 4 -2.65625 L 5.640625 -2.65625 C 6.109375 -2.65625 6.472656 -2.789062 6.734375 -3.0625 C 7.003906 -3.332031 7.140625 -3.800781 7.140625 -4.46875 L 7.140625 -14.171875 C 7.140625 -14.835938 7.003906 -15.300781 6.734375 -15.5625 C 6.472656 -15.832031 6.109375 -15.96875 5.640625 -15.96875 Z M 4 -15.96875 "/></g></g><g style="fill:#ffaa1c;fill-opacity:1;"><g transform="translate(170.38105, 21.051625)"><path style="stroke:none" d="M 3.75 -4.28125 C 3.75 -3.613281 3.882812 -3.140625 4.15625 -2.859375 C 4.4375 -2.585938 4.804688 -2.453125 5.265625 -2.453125 C 5.734375 -2.453125 6.101562 -2.585938 6.375 -2.859375 C 6.65625 -3.140625 6.796875 -3.613281 6.796875 -4.28125 L 6.796875 -14.34375 C 6.796875 -15.019531 6.65625 -15.492188 6.375 -15.765625 C 6.101562 -16.046875 5.734375 -16.1875 5.265625 -16.1875 C 4.804688 -16.1875 4.4375 -16.046875 4.15625 -15.765625 C 3.882812 -15.492188 3.75 -15.019531 3.75 -14.34375 Z M 0.828125 -14.171875 C 0.828125 -15.671875 1.207031 -16.820312 1.96875 -17.625 C 2.726562 -18.4375 3.828125 -18.84375 5.265625 -18.84375 C 6.703125 -18.84375 7.800781 -18.4375 8.5625 -17.625 C 9.332031 -16.820312 9.71875 -15.671875 9.71875 -14.171875 L 9.71875 -4.46875 C 9.71875 -2.957031 9.332031 -1.796875 8.5625 -0.984375 C 7.800781 -0.179688 6.703125 0.21875 5.265625 0.21875 C 3.828125 0.21875 2.726562 -0.179688 1.96875 -0.984375 C 1.207031 -1.796875 0.828125 -2.957031 0.828125 -4.46875 Z M 0.828125 -14.171875 "/></g></g><g style="fill:#ffaa1c;fill-opacity:1;"><g transform="translate(183.589149, 21.051625)"><path style="stroke:none" d="M 3.75 -4.28125 C 3.75 -3.613281 3.882812 -3.140625 4.15625 -2.859375 C 4.4375 -2.585938 4.804688 -2.453125 5.265625 -2.453125 C 5.734375 -2.453125 6.101562 -2.585938 6.375 -2.859375 C 6.65625 -3.140625 6.796875 -3.613281 6.796875 -4.28125 L 6.796875 -14.34375 C 6.796875 -15.019531 6.65625 -15.492188 6.375 -15.765625 C 6.101562 -16.046875 5.734375 -16.1875 5.265625 -16.1875 C 4.804688 -16.1875 4.4375 -16.046875 4.15625 -15.765625 C 3.882812 -15.492188 3.75 -15.019531 3.75 -14.34375 Z M 0.828125 -14.171875 C 0.828125 -15.671875 1.207031 -16.820312 1.96875 -17.625 C 2.726562 -18.4375 3.828125 -18.84375 5.265625 -18.84375 C 6.703125 -18.84375 7.800781 -18.4375 8.5625 -17.625 C 9.332031 -16.820312 9.71875 -15.671875 9.71875 -14.171875 L 9.71875 -4.46875 C 9.71875 -2.957031 9.332031 -1.796875 8.5625 -0.984375 C 7.800781 -0.179688 6.703125 0.21875 5.265625 0.21875 C 3.828125 0.21875 2.726562 -0.179688 1.96875 -0.984375 C 1.207031 -1.796875 0.828125 -2.957031 0.828125 -4.46875 Z M 0.828125 -14.171875 "/></g></g><g style="fill:#ffaa1c;fill-opacity:1;"><g transform="translate(196.797248, 21.051625)"><path style="stroke:none" d="M 7.1875 0 C 7.15625 -0.125 7.117188 -0.238281 7.078125 -0.34375 C 7.046875 -0.445312 7.015625 -0.578125 6.984375 -0.734375 C 6.960938 -0.898438 6.945312 -1.109375 6.9375 -1.359375 C 6.925781 -1.609375 6.921875 -1.921875 6.921875 -2.296875 L 6.921875 -5.21875 C 6.921875 -6.082031 6.769531 -6.691406 6.46875 -7.046875 C 6.164062 -7.410156 5.675781 -7.59375 5 -7.59375 L 4 -7.59375 L 4 0 L 1.0625 0 L 1.0625 -18.640625 L 5.484375 -18.640625 C 7.015625 -18.640625 8.117188 -18.28125 8.796875 -17.5625 C 9.484375 -16.851562 9.828125 -15.78125 9.828125 -14.34375 L 9.828125 -12.890625 C 9.828125 -10.972656 9.1875 -9.710938 7.90625 -9.109375 C 8.65625 -8.804688 9.164062 -8.3125 9.4375 -7.625 C 9.707031 -6.945312 9.84375 -6.117188 9.84375 -5.140625 L 9.84375 -2.265625 C 9.84375 -1.804688 9.859375 -1.398438 9.890625 -1.046875 C 9.929688 -0.703125 10.023438 -0.351562 10.171875 0 Z M 4 -15.96875 L 4 -10.25 L 5.140625 -10.25 C 5.691406 -10.25 6.117188 -10.390625 6.421875 -10.671875 C 6.734375 -10.960938 6.890625 -11.476562 6.890625 -12.21875 L 6.890625 -14.0625 C 6.890625 -14.726562 6.769531 -15.210938 6.53125 -15.515625 C 6.289062 -15.816406 5.914062 -15.96875 5.40625 -15.96875 Z M 4 -15.96875 "/></g></g><g style="fill:#ffaa1c;fill-opacity:1;"><g transform="translate(210.165105, 21.051625)"><path style="stroke:none" d="M 0.6875 -14.171875 C 0.6875 -15.671875 1.046875 -16.820312 1.765625 -17.625 C 2.484375 -18.4375 3.5625 -18.84375 5 -18.84375 C 6.4375 -18.84375 7.515625 -18.4375 8.234375 -17.625 C 8.953125 -16.820312 9.3125 -15.671875 9.3125 -14.171875 L 9.3125 -13.453125 L 6.546875 -13.453125 L 6.546875 -14.34375 C 6.546875 -15.019531 6.414062 -15.492188 6.15625 -15.765625 C 5.90625 -16.046875 5.546875 -16.1875 5.078125 -16.1875 C 4.617188 -16.1875 4.257812 -16.046875 4 -15.765625 C 3.75 -15.492188 3.625 -15.019531 3.625 -14.34375 C 3.625 -13.707031 3.765625 -13.144531 4.046875 -12.65625 C 4.328125 -12.164062 4.679688 -11.703125 5.109375 -11.265625 C 5.535156 -10.835938 5.992188 -10.40625 6.484375 -9.96875 C 6.972656 -9.53125 7.429688 -9.054688 7.859375 -8.546875 C 8.285156 -8.035156 8.640625 -7.445312 8.921875 -6.78125 C 9.203125 -6.125 9.34375 -5.351562 9.34375 -4.46875 C 9.34375 -2.957031 8.972656 -1.796875 8.234375 -0.984375 C 7.503906 -0.179688 6.421875 0.21875 4.984375 0.21875 C 3.546875 0.21875 2.457031 -0.179688 1.71875 -0.984375 C 0.976562 -1.796875 0.609375 -2.957031 0.609375 -4.46875 L 0.609375 -5.75 L 3.375 -5.75 L 3.375 -4.28125 C 3.375 -3.613281 3.507812 -3.144531 3.78125 -2.875 C 4.0625 -2.601562 4.4375 -2.46875 4.90625 -2.46875 C 5.363281 -2.46875 5.726562 -2.601562 6 -2.875 C 6.28125 -3.144531 6.421875 -3.613281 6.421875 -4.28125 C 6.421875 -4.925781 6.273438 -5.488281 5.984375 -5.96875 C 5.703125 -6.457031 5.347656 -6.921875 4.921875 -7.359375 C 4.492188 -7.796875 4.035156 -8.226562 3.546875 -8.65625 C 3.066406 -9.09375 2.613281 -9.566406 2.1875 -10.078125 C 1.757812 -10.597656 1.398438 -11.1875 1.109375 -11.84375 C 0.828125 -12.5 0.6875 -13.273438 0.6875 -14.171875 Z M 0.6875 -14.171875 "/></g></g></g></g></g></g></g></g></g></svg>